<svg xmlns="http://www.w3.org/2000/svg" xmlns:xlink="http://www.w3.org/1999/xlink" width="4000" zoomAndPan="magnify" viewBox="0 0 3000 2999.999989" height="4000" preserveAspectRatio="xMidYMid meet" version="1.0"><defs><g/><clipPath id="0f299f0206"><rect x="0" width="2513" y="0" height="865"/></clipPath><clipPath id="cf8e668d3d"><rect x="0" width="740" y="0" height="505"/></clipPath><clipPath id="2587740264"><path d="M 678.679688 1542.324219 L 1053.679688 1542.324219 L 1053.679688 1564.824219 L 678.679688 1564.824219 Z M 678.679688 1542.324219 " clip-rule="nonzero"/></clipPath><clipPath id="a9dff4bbd5"><path d="M 0.679688 0.324219 L 375.679688 0.324219 L 375.679688 22.824219 L 0.679688 22.824219 Z M 0.679688 0.324219 " clip-rule="nonzero"/></clipPath><clipPath id="3c6cbb19e0"><rect x="0" width="376" y="0" height="23"/></clipPath><clipPath id="6a1b58855e"><path d="M 1946.371094 1542.324219 L 2321.371094 1542.324219 L 2321.371094 1564.824219 L 1946.371094 1564.824219 Z M 1946.371094 1542.324219 " clip-rule="nonzero"/></clipPath><clipPath id="d087629037"><path d="M 0.371094 0.324219 L 375.371094 0.324219 L 375.371094 22.824219 L 0.371094 22.824219 Z M 0.371094 0.324219 " clip-rule="nonzero"/></clipPath><clipPath id="d9ecd29b4d"><rect x="0" width="376" y="0" height="23"/></clipPath><clipPath id="de48e242a3"><rect x="0" width="2523" y="0" height="1019"/></clipPath></defs><g transform="matrix(1, 0, 0, 1, 258, 1546)"><g clip-path="url(#0f299f0206)"><g fill="#000000" fill-opacity="1"><g transform="translate(8.251773, 630.932732)"><g><path d="M 516.03125 -52.03125 C 509.582031 -41.539062 493.851562 -28.632812 468.84375 -13.3125 C 446.664062 0 432.957031 14.519531 427.71875 30.25 L 392.015625 59.890625 C 384.753906 58.273438 360.15625 45.972656 318.21875 22.984375 C 281.507812 2.421875 250.050781 -7.859375 223.84375 -7.859375 C 173.832031 -7.859375 141.160156 -6.25 125.828125 -3.03125 C 91.546875 5.039062 66.34375 24 50.21875 53.84375 C 34.882812 44.164062 27.21875 34.082031 27.21875 23.59375 C 27.21875 15.925781 30.546875 5.140625 37.203125 -8.765625 C 43.859375 -22.679688 46.785156 -33.675781 45.984375 -41.75 C 54.453125 -51.820312 62.71875 -61.898438 70.78125 -71.984375 C 77.226562 -80.054688 80.453125 -93.570312 80.453125 -112.53125 C 80.453125 -119.382812 79.039062 -143.78125 76.21875 -185.71875 C 72.59375 -190.15625 67.046875 -192.773438 59.578125 -193.578125 C 52.117188 -194.390625 44.960938 -195.203125 38.109375 -196.015625 C 30.453125 -192.378906 23.394531 -190.5625 16.9375 -190.5625 L 10.28125 -191.78125 C 10.28125 -199.039062 19.757812 -206.5 38.71875 -214.15625 C 57.675781 -221.820312 67.15625 -229.484375 67.15625 -237.140625 L 65.9375 -241.984375 C 55.050781 -239.972656 39.125 -235.941406 18.15625 -229.890625 L 10.28125 -233.515625 C 12.707031 -242.390625 18.957031 -249.648438 29.03125 -255.296875 C 38.3125 -259.328125 47.390625 -263.5625 56.265625 -268 C 60.296875 -267.59375 65.941406 -275.253906 73.203125 -290.984375 C 82.878906 -312.359375 91.144531 -327.484375 98 -336.359375 C 111.3125 -352.492188 126.84375 -360.5625 144.59375 -360.5625 C 148.21875 -360.5625 152.046875 -360.359375 156.078125 -359.953125 C 158.503906 -362.773438 164.554688 -366.003906 174.234375 -369.640625 C 182.703125 -372.859375 187.941406 -376.890625 189.953125 -381.734375 C 153.660156 -387.378906 117.363281 -393.023438 81.0625 -398.671875 C 24.195312 -409.566406 -4.234375 -424.691406 -4.234375 -444.046875 L -3.625 -449.484375 C -1.613281 -451.910156 8.867188 -469.457031 27.828125 -502.125 C 44.359375 -530.757812 56.660156 -545.078125 64.734375 -545.078125 C 70.378906 -545.078125 77.035156 -539.832031 84.703125 -529.34375 C 93.972656 -516.4375 99.816406 -509.175781 102.234375 -507.5625 C 135.304688 -484.175781 191.164062 -471.269531 269.8125 -468.84375 C 355.3125 -466.019531 411.375 -458.15625 438 -445.25 C 489.21875 -420.65625 514.828125 -367.21875 514.828125 -284.9375 C 514.828125 -264.769531 513.113281 -234.21875 509.6875 -193.28125 C 506.257812 -152.351562 504.546875 -121.804688 504.546875 -101.640625 C 504.546875 -81.867188 508.375 -65.332031 516.03125 -52.03125 Z M 402.90625 -321.234375 C 402.90625 -334.953125 397.257812 -354.515625 385.96875 -379.921875 C 382.738281 -387.179688 374.472656 -393.429688 361.171875 -398.671875 C 349.472656 -403.109375 338.785156 -405.328125 329.109375 -405.328125 C 310.148438 -405.328125 297.039062 -399.28125 289.78125 -387.1875 C 284.9375 -378.3125 282.515625 -364.394531 282.515625 -345.4375 C 282.515625 -343.019531 282.515625 -339.1875 282.515625 -333.9375 C 282.921875 -328.695312 283.125 -324.664062 283.125 -321.84375 C 283.125 -314.582031 282.722656 -308.53125 281.921875 -303.6875 C 285.140625 -298.445312 293.609375 -293.8125 307.328125 -289.78125 C 319.023438 -286.550781 328.90625 -284.9375 336.96875 -284.9375 C 363.582031 -284.9375 385.160156 -293.207031 401.703125 -309.75 C 402.503906 -313.375 402.90625 -317.203125 402.90625 -321.234375 Z M 416.21875 -191.78125 C 413.394531 -234.53125 411.984375 -263.164062 411.984375 -277.6875 C 409.960938 -278.488281 408.144531 -278.890625 406.53125 -278.890625 C 403.3125 -278.890625 398.878906 -277.675781 393.234375 -275.25 C 387.585938 -272.832031 383.148438 -271.625 379.921875 -271.625 C 369.835938 -263.96875 355.722656 -260.140625 337.578125 -260.140625 C 333.140625 -260.140625 325.878906 -260.539062 315.796875 -261.34375 C 305.710938 -262.15625 297.847656 -262.359375 292.203125 -261.953125 L 284.328125 -261.953125 C 279.085938 -258.316406 276.46875 -252.265625 276.46875 -243.796875 C 276.46875 -240.972656 276.769531 -236.738281 277.375 -231.09375 C 277.976562 -225.445312 278.28125 -221.210938 278.28125 -218.390625 C 278.28125 -216.378906 277.875 -213.757812 277.0625 -210.53125 C 276.257812 -207.300781 275.859375 -205.082031 275.859375 -203.875 C 275.859375 -198.632812 282.515625 -196.015625 295.828125 -196.015625 C 302.285156 -196.015625 311.96875 -197.125 324.875 -199.34375 C 337.78125 -201.5625 347.457031 -202.671875 353.90625 -202.671875 C 364.394531 -202.671875 375.285156 -200.046875 386.578125 -194.796875 C 397.867188 -189.554688 404.925781 -186.9375 407.75 -186.9375 C 411.78125 -186.9375 414.601562 -188.550781 416.21875 -191.78125 Z M 256.5 -135.515625 C 256.5 -148.015625 256.097656 -166.460938 255.296875 -190.859375 C 254.492188 -215.265625 254.09375 -233.519531 254.09375 -245.625 C 254.09375 -311.363281 251.46875 -355.320312 246.21875 -377.5 C 242.988281 -379.113281 240.164062 -379.921875 237.75 -379.921875 C 232.507812 -379.921875 227.46875 -376.289062 222.625 -369.03125 C 215.769531 -357.738281 212.34375 -351.890625 212.34375 -351.484375 C 212.34375 -340.191406 212.539062 -322.847656 212.9375 -299.453125 C 213.34375 -276.066406 213.546875 -258.523438 213.546875 -246.828125 C 213.546875 -243.191406 212.835938 -237.742188 211.421875 -230.484375 C 210.015625 -223.234375 209.3125 -217.789062 209.3125 -214.15625 C 209.3125 -211.738281 210.925781 -206.296875 214.15625 -197.828125 C 215.363281 -193.796875 215.96875 -172.421875 215.96875 -133.703125 C 215.96875 -117.160156 217.378906 -103.242188 220.203125 -91.953125 C 218.992188 -91.546875 225.046875 -91.34375 238.359375 -91.34375 C 244.804688 -91.34375 249.441406 -92.957031 252.265625 -96.1875 C 255.085938 -107.882812 256.5 -120.992188 256.5 -135.515625 Z M 428.921875 -52.625 C 428.921875 -57.0625 427.101562 -63.414062 423.46875 -71.6875 C 419.84375 -79.957031 418.03125 -86.710938 418.03125 -91.953125 C 418.03125 -119.785156 414.601562 -137.226562 407.75 -144.28125 C 400.894531 -151.34375 389.398438 -157.09375 373.265625 -161.53125 C 359.148438 -165.96875 346.242188 -168.1875 334.546875 -168.1875 C 299.460938 -168.1875 281.921875 -159.3125 281.921875 -141.5625 C 281.921875 -136.71875 283.53125 -128.851562 286.75 -117.96875 C 289.976562 -107.082031 290.988281 -98.410156 289.78125 -91.953125 C 297.84375 -87.515625 308.328125 -83.679688 321.234375 -80.453125 C 340.597656 -75.617188 351.488281 -72.796875 353.90625 -71.984375 C 359.957031 -69.972656 370.242188 -63.320312 384.765625 -52.03125 C 397.265625 -42.75 408.351562 -38.109375 418.03125 -38.109375 C 420.445312 -38.109375 422.863281 -39.820312 425.28125 -43.25 C 427.707031 -46.675781 428.921875 -49.800781 428.921875 -52.625 Z M 192.375 -313.984375 C 192.375 -310.753906 190.359375 -323.253906 186.328125 -351.484375 C 166.160156 -345.835938 156.078125 -330.109375 156.078125 -304.296875 C 156.078125 -288.972656 156.882812 -266.082031 158.5 -235.625 C 160.113281 -205.175781 160.921875 -182.492188 160.921875 -167.578125 C 160.921875 -139.347656 160.015625 -122.101562 158.203125 -115.84375 C 156.390625 -109.59375 148.222656 -98.503906 133.703125 -82.578125 C 119.179688 -66.648438 111.921875 -58.6875 111.921875 -58.6875 C 111.921875 -56.664062 112.726562 -55.050781 114.34375 -53.84375 C 120.382812 -57.070312 129.554688 -59.992188 141.859375 -62.609375 C 154.160156 -65.234375 162.9375 -67.753906 168.1875 -70.171875 C 179.476562 -75.015625 186.128906 -86.914062 188.140625 -105.875 C 190.960938 -130.46875 192.375 -199.835938 192.375 -313.984375 Z M 192.375 -313.984375 "/></g></g></g><g fill="#000000" fill-opacity="1"><g transform="translate(504.27338, 630.932732)"><g><path d="M 264.96875 -49 C 252.070312 -47.382812 240.175781 -39.722656 229.28125 -26.015625 C 213.957031 -5.847656 205.285156 5.039062 203.265625 6.65625 C 198.023438 4.632812 191.570312 -0.40625 183.90625 -8.46875 C 176.25 -16.53125 170.203125 -21.773438 165.765625 -24.203125 C 159.710938 -27.828125 153.660156 -29.640625 147.609375 -29.640625 C 137.929688 -29.640625 126.035156 -23.390625 111.921875 -10.890625 C 96.191406 3.222656 84.492188 11.085938 76.828125 12.703125 C 71.179688 12.703125 67.753906 9.675781 66.546875 3.625 C 65.335938 -6.851562 64.734375 -12.09375 64.734375 -12.09375 C 62.710938 -13.707031 53.640625 -25.804688 37.515625 -48.390625 C 27.023438 -62.910156 15.929688 -73.398438 4.234375 -79.859375 C 14.316406 -87.921875 20.769531 -99.414062 23.59375 -114.34375 C 25.613281 -123.207031 26.625 -137.316406 26.625 -156.671875 C 26.625 -176.035156 27.628906 -189.753906 29.640625 -197.828125 C 28.835938 -203.472656 28.03125 -209.21875 27.21875 -215.0625 C 26.414062 -220.914062 24.398438 -225.65625 21.171875 -229.28125 C 19.554688 -229.6875 17.234375 -229.484375 14.203125 -228.671875 C 11.179688 -227.867188 9.066406 -227.46875 7.859375 -227.46875 C 5.441406 -227.46875 3.628906 -228.675781 2.421875 -231.09375 C 4.429688 -237.550781 11.285156 -243.90625 22.984375 -250.15625 C 34.679688 -256.40625 40.9375 -263.765625 41.75 -272.234375 C 46.175781 -283.117188 57.0625 -293.203125 74.40625 -302.484375 C 93.769531 -312.160156 106.273438 -321.4375 111.921875 -330.3125 C 119.578125 -330.3125 123.003906 -328.898438 122.203125 -326.078125 C 118.972656 -316.398438 114.132812 -301.273438 107.6875 -280.703125 C 107.6875 -267.390625 106.878906 -242.988281 105.265625 -207.5 C 103.648438 -176.851562 103.242188 -152.253906 104.046875 -133.703125 C 100.015625 -127.648438 98 -121.597656 98 -115.546875 C 98 -108.285156 101.023438 -99.414062 107.078125 -88.9375 C 114.742188 -74.8125 119.179688 -66.335938 120.390625 -63.515625 C 121.191406 -63.117188 123.304688 -61.910156 126.734375 -59.890625 C 130.171875 -57.867188 132.691406 -56.859375 134.296875 -56.859375 C 137.117188 -56.859375 139.335938 -58.472656 140.953125 -61.703125 C 151.035156 -71.378906 157.488281 -84.488281 160.3125 -101.03125 C 162.332031 -110.707031 163.34375 -125.828125 163.34375 -146.390625 C 163.34375 -166.960938 164.148438 -182.09375 165.765625 -191.78125 C 167.378906 -196.21875 168.1875 -201.863281 168.1875 -208.71875 C 168.1875 -211.9375 167.984375 -216.570312 167.578125 -222.625 C 167.171875 -228.675781 166.96875 -233.113281 166.96875 -235.9375 C 166.96875 -247.226562 169.992188 -255.296875 176.046875 -260.140625 L 178.46875 -266.1875 C 176.851562 -266.1875 174.632812 -266.992188 171.8125 -268.609375 L 171.8125 -274.65625 L 209.3125 -313.984375 C 214.15625 -313.984375 217.585938 -311.960938 219.609375 -307.921875 C 218.390625 -303.890625 217.78125 -299.859375 217.78125 -295.828125 C 217.78125 -285.742188 223.226562 -275.457031 234.125 -264.96875 C 243.800781 -256.5 253.476562 -248.03125 263.15625 -239.5625 C 264.769531 -231.90625 260.535156 -221.421875 250.453125 -208.109375 C 251.265625 -192.378906 248.34375 -169.488281 241.6875 -139.4375 C 235.03125 -109.394531 232.507812 -86.109375 234.125 -69.578125 C 240.175781 -66.753906 246.425781 -63.726562 252.875 -60.5 C 259.332031 -57.269531 263.363281 -53.4375 264.96875 -49 Z M 264.96875 -49 "/></g></g></g><g fill="#000000" fill-opacity="1"><g transform="translate(751.679331, 630.932732)"><g><path d="M 232.3125 -349.671875 C 239.164062 -324.265625 242.59375 -307.929688 242.59375 -300.671875 C 242.59375 -288.566406 238.960938 -278.484375 231.703125 -270.421875 C 228.878906 -265.578125 218.59375 -251.863281 200.84375 -229.28125 C 189.15625 -214.363281 182.097656 -199.441406 179.671875 -184.515625 C 182.898438 -176.046875 192.175781 -165.757812 207.5 -153.65625 C 221.21875 -143.175781 228.679688 -131.882812 229.890625 -119.78125 C 230.296875 -116.550781 231.503906 -108.6875 233.515625 -96.1875 C 235.128906 -86.101562 235.9375 -78.035156 235.9375 -71.984375 C 235.9375 -59.078125 232.304688 -48.59375 225.046875 -40.53125 C 221.421875 -42.550781 218.195312 -43.5625 215.375 -43.5625 C 211.332031 -43.5625 206.691406 -41.140625 201.453125 -36.296875 C 196.210938 -31.453125 192.179688 -29.03125 189.359375 -29.03125 C 186.535156 -29.03125 183.710938 -30.242188 180.890625 -32.671875 C 164.347656 -21.773438 135.910156 -5.441406 95.578125 16.328125 C 88.722656 15.523438 79.347656 8.671875 67.453125 -4.234375 C 55.554688 -17.140625 46.378906 -23.59375 39.921875 -23.59375 C 34.273438 -23.59375 28.832031 -20.769531 23.59375 -15.125 C 23.59375 -14.71875 22.484375 -12.394531 20.265625 -8.15625 C 18.046875 -3.925781 16.9375 -0.601562 16.9375 1.8125 C 16.9375 4.632812 17.742188 7.054688 19.359375 9.078125 C 25.804688 8.671875 30.847656 12.097656 34.484375 19.359375 C 34.890625 20.566406 36.90625 26.816406 40.53125 38.109375 C 40.125 44.960938 39.921875 51.820312 39.921875 58.6875 C 39.117188 66.75 35.691406 71.382812 29.640625 72.59375 C 19.554688 69.363281 9.273438 66.335938 -1.203125 63.515625 C -11.691406 58.679688 -17.34375 50.617188 -18.15625 39.328125 C -13.71875 -2.617188 4.03125 -52.226562 35.09375 -109.5 C 35.09375 -115.550781 31.960938 -124.222656 25.703125 -135.515625 C 19.453125 -146.804688 16.328125 -155.476562 16.328125 -161.53125 C 16.328125 -166.363281 17.738281 -171.203125 20.5625 -176.046875 C 20.5625 -180.484375 20.257812 -187.441406 19.65625 -196.921875 C 19.050781 -206.398438 18.75 -213.351562 18.75 -217.78125 C 18.75 -235.53125 22.582031 -248.84375 30.25 -257.71875 C 41.945312 -258.925781 56.363281 -265.378906 73.5 -277.078125 C 90.644531 -288.773438 105.265625 -295.023438 117.359375 -295.828125 C 125.023438 -299.859375 136.117188 -307.320312 150.640625 -318.21875 C 159.109375 -315.394531 165.257812 -307.328125 169.09375 -294.015625 C 172.925781 -280.703125 178.671875 -272.03125 186.328125 -268 C 192.785156 -270.414062 200.851562 -280.898438 210.53125 -299.453125 C 210.125 -303.890625 209.519531 -307.320312 208.71875 -309.75 C 207.101562 -313.78125 205.085938 -316.398438 202.671875 -317.609375 C 197.421875 -316.398438 191.367188 -319.828125 184.515625 -327.890625 C 183.304688 -331.523438 182.703125 -334.753906 182.703125 -337.578125 C 182.703125 -345.234375 188.144531 -352.289062 199.03125 -358.75 C 202.257812 -359.957031 205.488281 -360.5625 208.71875 -360.5625 C 218.800781 -360.5625 226.664062 -356.929688 232.3125 -349.671875 Z M 132.484375 -197.21875 C 133.296875 -199.238281 133.703125 -201.457031 133.703125 -203.875 C 133.703125 -208.71875 131.28125 -214.867188 126.4375 -222.328125 C 121.59375 -229.785156 118.769531 -234.925781 117.96875 -237.75 L 94.984375 -268.609375 C 90.546875 -268.203125 87.21875 -265.78125 85 -261.34375 C 82.78125 -256.90625 80.660156 -252.671875 78.640625 -248.640625 C 75.421875 -231.703125 73.8125 -219.203125 73.8125 -211.140625 C 73.8125 -193.390625 79.457031 -180.484375 90.75 -172.421875 C 98.40625 -171.203125 105.863281 -173.820312 113.125 -180.28125 C 124.019531 -190.363281 130.472656 -196.007812 132.484375 -197.21875 Z M 163.953125 -61.703125 C 165.554688 -77.429688 156.679688 -96.992188 137.328125 -120.390625 C 126.835938 -127.648438 113.726562 -131.882812 98 -133.09375 C 90.34375 -127.851562 82.476562 -122.8125 74.40625 -117.96875 C 64.726562 -110.707031 59.890625 -103.242188 59.890625 -95.578125 C 59.890625 -91.953125 60.898438 -88.328125 62.921875 -84.703125 C 75.015625 -57.671875 98.003906 -40.726562 131.890625 -33.875 C 134.304688 -37.507812 139.546875 -41.847656 147.609375 -46.890625 C 155.679688 -51.929688 161.128906 -56.867188 163.953125 -61.703125 Z M 163.953125 -61.703125 "/></g></g></g><g fill="#000000" fill-opacity="1"><g transform="translate(977.913556, 630.932732)"><g><path d="M 297.046875 -6.65625 C 276.066406 2.625 263.359375 8.472656 258.921875 10.890625 C 247.222656 17.335938 240.367188 24.394531 238.359375 32.0625 L 220.8125 47.1875 C 217.582031 44.769531 215.363281 39.929688 214.15625 32.671875 C 212.539062 23.390625 211.332031 18.144531 210.53125 16.9375 C 206.5 7.664062 200.445312 0.00390625 192.375 -6.046875 C 178.257812 -16.941406 170.195312 -23.394531 168.1875 -25.40625 C 154.46875 -33.476562 141.757812 -34.082031 130.0625 -27.21875 C 128.445312 -21.175781 123.609375 -18.15625 115.546875 -18.15625 C 112.722656 -18.15625 110.304688 -18.554688 108.296875 -19.359375 C 111.515625 -31.460938 125.023438 -46.789062 148.828125 -65.34375 C 170.203125 -82.28125 180.890625 -99.015625 180.890625 -115.546875 C 180.890625 -119.578125 180.484375 -123.8125 179.671875 -128.25 C 178.460938 -138.738281 177.253906 -144.789062 176.046875 -146.40625 C 174.835938 -148.019531 168.988281 -151.242188 158.5 -156.078125 C 154.46875 -161.328125 147.207031 -162.941406 136.71875 -160.921875 C 125.019531 -158.898438 117.15625 -159.300781 113.125 -162.125 C 110.707031 -111.3125 105.46875 -73.804688 97.40625 -49.609375 C 96.59375 -46.378906 98.300781 -42.75 102.53125 -38.71875 C 106.769531 -34.6875 108.890625 -31.660156 108.890625 -29.640625 C 108.890625 -28.429688 108.488281 -27.222656 107.6875 -26.015625 C 105.664062 -25.203125 98.90625 -20.863281 87.40625 -13 C 75.914062 -5.132812 67.550781 -1.203125 62.3125 -1.203125 C 59.894531 -1.203125 57.878906 -1.8125 56.265625 -3.03125 C 35.691406 -7.0625 18.144531 -18.554688 3.625 -37.515625 C 35.082031 -60.097656 50.8125 -97.601562 50.8125 -150.03125 C 50.8125 -164.550781 49.398438 -183.304688 46.578125 -206.296875 C 43.753906 -234.523438 42.144531 -251.460938 41.75 -257.109375 C 24.800781 -274.046875 16.328125 -288.96875 16.328125 -301.875 C 16.328125 -305.101562 16.734375 -308.128906 17.546875 -310.953125 C 20.367188 -312.972656 24 -313.984375 28.4375 -313.984375 C 30.050781 -313.984375 32.269531 -313.984375 35.09375 -313.984375 C 37.914062 -313.578125 39.929688 -313.375 41.140625 -313.375 C 47.992188 -313.375 51.421875 -317.207031 51.421875 -324.875 C 51.828125 -329.300781 51.421875 -336.148438 50.203125 -345.421875 C 48.992188 -354.703125 48.390625 -361.5625 48.390625 -366 C 48.390625 -380.925781 54.238281 -390.40625 65.9375 -394.4375 C 72.394531 -395.25 79.253906 -398.476562 86.515625 -404.125 C 93.773438 -409.769531 100.832031 -415.210938 107.6875 -420.453125 C 118.164062 -441.828125 124.816406 -458.363281 127.640625 -470.0625 C 131.273438 -472.070312 134.503906 -473.078125 137.328125 -473.078125 C 142.171875 -473.078125 147.007812 -470.957031 151.84375 -466.71875 C 156.6875 -462.488281 161.125 -458.359375 165.15625 -454.328125 C 174.03125 -448.273438 186.332031 -443.035156 202.0625 -438.609375 C 225.445312 -431.347656 238.347656 -427.210938 240.765625 -426.203125 C 243.191406 -425.191406 244.609375 -423.273438 245.015625 -420.453125 C 245.816406 -417.222656 245.210938 -414.601562 243.203125 -412.59375 C 220.609375 -404.519531 206.691406 -399.273438 201.453125 -396.859375 C 186.128906 -389.191406 174.03125 -379.710938 165.15625 -368.421875 C 163.132812 -366.410156 160.515625 -367.21875 157.296875 -370.84375 C 157.296875 -376.894531 154.472656 -383.550781 148.828125 -390.8125 C 140.753906 -401.289062 136.316406 -407.140625 135.515625 -408.359375 C 128.253906 -415.617188 121.597656 -417.632812 115.546875 -414.40625 C 110.710938 -405.53125 108.296875 -394.640625 108.296875 -381.734375 C 108.296875 -375.285156 109.300781 -363.585938 111.3125 -346.640625 C 113.332031 -331.316406 114.140625 -319.421875 113.734375 -310.953125 C 116.148438 -308.128906 117.660156 -302.679688 118.265625 -294.609375 C 118.867188 -286.546875 120.582031 -281.507812 123.40625 -279.5 C 134.300781 -289.582031 149.832031 -298.859375 170 -307.328125 C 190.164062 -315.796875 207.910156 -320.03125 223.234375 -320.03125 C 243.398438 -320.03125 253.484375 -311.960938 253.484375 -295.828125 C 253.484375 -284.128906 250.457031 -273.441406 244.40625 -263.765625 C 243.601562 -261.742188 234.53125 -252.265625 217.1875 -235.328125 C 201.851562 -220.003906 195.398438 -210.53125 197.828125 -206.90625 C 198.234375 -206.09375 199.238281 -205.6875 200.84375 -205.6875 C 203.269531 -205.6875 211.132812 -208.710938 224.4375 -214.765625 C 237.75 -220.816406 247.632812 -223.84375 254.09375 -223.84375 C 262.957031 -223.84375 268.398438 -219.203125 270.421875 -209.921875 C 270.015625 -184.921875 264.769531 -162.335938 254.6875 -142.171875 C 247.03125 -126.835938 236.34375 -112.519531 222.625 -99.21875 C 213.75 -90.75 204.675781 -82.476562 195.40625 -74.40625 C 199.03125 -68.757812 206.894531 -64.726562 219 -62.3125 C 233.113281 -59.894531 242.59375 -56.664062 247.4375 -52.625 C 250.257812 -51.019531 258.125 -45.578125 271.03125 -36.296875 C 279.894531 -29.847656 288.566406 -26.625 297.046875 -26.625 C 299.460938 -24.601562 300.671875 -22.382812 300.671875 -19.96875 C 300.671875 -18.351562 299.960938 -16.132812 298.546875 -13.3125 C 297.140625 -10.488281 296.640625 -8.269531 297.046875 -6.65625 Z M 191.78125 -235.328125 C 188.550781 -249.441406 179.472656 -256.5 164.546875 -256.5 C 155.273438 -256.5 145.492188 -253.976562 135.203125 -248.9375 C 124.921875 -243.894531 118.972656 -239.359375 117.359375 -235.328125 C 116.148438 -222.828125 114.941406 -201.65625 113.734375 -171.8125 C 135.109375 -185.925781 148.820312 -195.40625 154.875 -200.25 C 170.195312 -211.9375 182.5 -223.628906 191.78125 -235.328125 Z M 191.78125 -235.328125 "/></g></g></g><g fill="#000000" fill-opacity="1"><g transform="translate(1257.98431, 630.932732)"><g><path d="M 339.390625 -62.921875 C 328.898438 -55.253906 322.242188 -49 319.421875 -44.15625 C 318.210938 -42.550781 315.992188 -39.53125 312.765625 -35.09375 C 311.960938 -34.6875 307.328125 -32.867188 298.859375 -29.640625 C 294.015625 -27.222656 285.742188 -22.585938 274.046875 -15.734375 C 273.648438 -13.304688 272.238281 -9.675781 269.8125 -4.84375 C 256.101562 6.050781 245.210938 11.5 237.140625 11.5 C 231.492188 11.5 223.226562 5.648438 212.34375 -6.046875 C 210.320312 -8.066406 204.570312 -10.6875 195.09375 -13.90625 C 185.625 -17.132812 179.273438 -18.75 176.046875 -18.75 C 165.160156 -18.75 157.898438 -17.742188 154.265625 -15.734375 C 153.460938 -14.921875 149.628906 -11.691406 142.765625 -6.046875 C 125.828125 8.066406 113.929688 15.125 107.078125 15.125 C 106.671875 15.125 104.453125 14.519531 100.421875 13.3125 C 93.972656 11.289062 88.328125 7.660156 83.484375 2.421875 C 78.640625 -2.816406 74.804688 -6.046875 71.984375 -7.265625 C 63.117188 -11.296875 49.609375 -17.546875 31.453125 -26.015625 C 26.210938 -30.046875 21.78125 -33.878906 18.15625 -37.515625 C 14.925781 -39.117188 13.3125 -44.359375 13.3125 -53.234375 C 13.3125 -58.878906 14.117188 -63.113281 15.734375 -65.9375 L 24.796875 -76.21875 C 26.410156 -76.21875 28.628906 -76.828125 31.453125 -78.046875 C 36.296875 -86.515625 38.71875 -115.148438 38.71875 -163.953125 C 38.71875 -164.753906 38.515625 -167.578125 38.109375 -172.421875 C 38.109375 -177.253906 38.109375 -180.476562 38.109375 -182.09375 C 38.109375 -184.113281 38.710938 -187.644531 39.921875 -192.6875 C 41.140625 -197.726562 41.75 -200.648438 41.75 -201.453125 C 40.53125 -203.867188 38.710938 -207.703125 36.296875 -212.953125 C 35.492188 -216.984375 34.6875 -221.617188 33.875 -226.859375 C 32.257812 -234.929688 29.4375 -244.007812 25.40625 -254.09375 C 15.320312 -277.882812 10.28125 -292 10.28125 -296.4375 C 10.28125 -299.664062 11.289062 -303.898438 13.3125 -309.140625 C 16.132812 -316.804688 17.75 -321.039062 18.15625 -321.84375 C 18.15625 -327.894531 19.160156 -335.359375 21.171875 -344.234375 C 27.628906 -355.921875 39.929688 -367.613281 58.078125 -379.3125 C 60.097656 -384.15625 62.316406 -388.191406 64.734375 -391.421875 C 68.359375 -391.816406 77.03125 -393.832031 90.75 -397.46875 C 104.050781 -399.082031 118.769531 -399.28125 134.90625 -398.0625 C 134.90625 -397.257812 129.359375 -393.628906 118.265625 -387.171875 C 107.179688 -380.722656 101.640625 -376.894531 101.640625 -375.6875 C 101.640625 -374.476562 95.6875 -367.421875 83.78125 -354.515625 C 71.882812 -341.609375 65.9375 -330.316406 65.9375 -320.640625 C 65.9375 -310.953125 69.769531 -303.085938 77.4375 -297.046875 C 83.082031 -284.941406 86.109375 -272.835938 86.515625 -260.734375 C 86.515625 -251.460938 86.3125 -246.828125 85.90625 -246.828125 C 89.9375 -246.828125 95.78125 -248.335938 103.4375 -251.359375 C 111.101562 -254.390625 115.945312 -256.910156 117.96875 -258.921875 C 117.96875 -261.347656 118.570312 -265.179688 119.78125 -270.421875 C 120.988281 -272.835938 127.039062 -278.484375 137.9375 -287.359375 C 146.40625 -294.617188 154.875 -301.976562 163.34375 -309.4375 C 171.8125 -316.90625 177.859375 -320.640625 181.484375 -320.640625 C 183.910156 -320.640625 186.9375 -316.398438 190.5625 -307.921875 C 195 -297.441406 199.640625 -289.578125 204.484375 -284.328125 C 204.878906 -283.929688 207.296875 -278.488281 211.734375 -268 C 214.960938 -259.9375 219.398438 -255.90625 225.046875 -255.90625 C 231.898438 -255.90625 240.972656 -263.46875 252.265625 -278.59375 C 263.566406 -293.71875 272.238281 -302.285156 278.28125 -304.296875 C 281.101562 -305.109375 285.945312 -316 292.8125 -336.96875 C 294.820312 -336.96875 298.25 -333.335938 303.09375 -326.078125 C 308.332031 -317.609375 311.554688 -312.769531 312.765625 -311.5625 C 313.972656 -305.507812 316.394531 -299.660156 320.03125 -294.015625 C 321.238281 -293.609375 321.4375 -292.394531 320.625 -290.375 C 319.820312 -288.363281 320.226562 -286.957031 321.84375 -286.15625 C 332.332031 -274.863281 337.578125 -264.175781 337.578125 -254.09375 C 337.578125 -253.28125 337.375 -250.554688 336.96875 -245.921875 C 336.5625 -241.285156 336.359375 -238.160156 336.359375 -236.546875 C 336.359375 -234.117188 336.757812 -228.367188 337.5625 -219.296875 C 338.375 -210.222656 338.78125 -204.273438 338.78125 -201.453125 L 338.78125 -131.28125 L 333.34375 -119.78125 L 333.34375 -89.53125 L 338.171875 -84.703125 Z M 274.046875 -179.671875 C 274.046875 -181.691406 273.441406 -185.523438 272.234375 -191.171875 C 271.023438 -196.816406 270.421875 -200.242188 270.421875 -201.453125 C 270.421875 -205.484375 270.625 -209.113281 271.03125 -212.34375 L 271.03125 -222.03125 C 271.03125 -230.5 270.222656 -236.144531 268.609375 -238.96875 C 261.753906 -250.257812 255.503906 -255.90625 249.859375 -255.90625 C 242.597656 -255.90625 234.53125 -247.535156 225.65625 -230.796875 C 216.78125 -214.054688 212.34375 -201.25 212.34375 -192.375 L 212.34375 -168.78125 C 215.570312 -161.925781 217.1875 -158.90625 217.1875 -159.71875 C 217.1875 -153.257812 216.378906 -143.472656 214.765625 -130.359375 C 213.148438 -117.253906 212.34375 -107.476562 212.34375 -101.03125 L 212.34375 -91.34375 C 214.363281 -89.738281 217.390625 -86.3125 221.421875 -81.0625 C 222.628906 -76.226562 224.039062 -73.40625 225.65625 -72.59375 C 235.738281 -66.945312 243.804688 -64.125 249.859375 -64.125 C 265.585938 -64.125 273.453125 -71.179688 273.453125 -85.296875 C 273.453125 -86.503906 273.144531 -89.628906 272.53125 -94.671875 C 271.925781 -99.710938 271.625 -103.039062 271.625 -104.65625 Z M 155.484375 -127.640625 C 155.484375 -132.890625 154.472656 -136.925781 152.453125 -139.75 C 152.453125 -145.394531 151.847656 -162.738281 150.640625 -191.78125 C 150.640625 -195 150.835938 -199.53125 151.234375 -205.375 C 151.640625 -211.226562 151.84375 -215.363281 151.84375 -217.78125 C 151.84375 -223.832031 150.429688 -228.472656 147.609375 -231.703125 C 143.578125 -235.734375 140.351562 -238.757812 137.9375 -240.78125 C 133.5 -246.019531 127.851562 -248.640625 121 -248.640625 C 105.664062 -248.640625 98 -230.691406 98 -194.796875 C 98 -191.566406 98.203125 -184.609375 98.609375 -173.921875 C 99.015625 -163.234375 99.21875 -156.476562 99.21875 -153.65625 C 99.21875 -151.238281 98.507812 -145.796875 97.09375 -137.328125 C 95.6875 -128.859375 94.984375 -123.414062 94.984375 -121 C 94.984375 -113.332031 96.191406 -104.253906 98.609375 -93.765625 C 101.835938 -80.859375 105.671875 -73.398438 110.109375 -71.390625 C 112.117188 -70.984375 116.046875 -69.265625 121.890625 -66.234375 C 127.742188 -63.210938 132.082031 -61.703125 134.90625 -61.703125 C 135.3125 -65.734375 138.941406 -67.75 145.796875 -67.75 C 145.796875 -74.613281 147.410156 -78.847656 150.640625 -80.453125 C 150.640625 -83.285156 150.640625 -87.117188 150.640625 -91.953125 C 150.640625 -94.773438 151.445312 -100.820312 153.0625 -110.09375 C 154.675781 -119.375 155.484375 -125.222656 155.484375 -127.640625 Z M 155.484375 -127.640625 "/></g></g></g><g fill="#000000" fill-opacity="1"><g transform="translate(1574.349315, 630.932732)"><g><path d="M 287.359375 -79.859375 C 288.160156 -76.628906 285.132812 -72.796875 278.28125 -68.359375 C 257.3125 -62.710938 234.125 -41.335938 208.71875 -4.234375 C 201.863281 -7.054688 196.21875 -13.710938 191.78125 -24.203125 C 186.53125 -36.703125 182.09375 -44.566406 178.46875 -47.796875 C 167.175781 -42.953125 155.882812 -33.269531 144.59375 -18.75 C 136.519531 -12.300781 124.015625 -3.628906 107.078125 7.265625 C 104.660156 6.859375 101.835938 4.535156 98.609375 0.296875 C 95.378906 -3.929688 92.351562 -6.046875 89.53125 -6.046875 C 76.226562 -21.773438 55.054688 -38.710938 26.015625 -56.859375 C 24.398438 -63.722656 23.59375 -71.390625 23.59375 -79.859375 C 23.59375 -87.515625 24.5 -99.304688 26.3125 -115.234375 C 28.125 -131.171875 29.03125 -143.175781 29.03125 -151.25 C 31.851562 -161.726562 39.113281 -171.40625 50.8125 -180.28125 C 60.894531 -187.539062 70.976562 -194.800781 81.0625 -202.0625 C 81.875 -204.070312 82.28125 -205.882812 82.28125 -207.5 C 82.28125 -212.75 78.847656 -218.800781 71.984375 -225.65625 C 63.515625 -233.71875 58.878906 -238.957031 58.078125 -241.375 C 47.585938 -254.28125 32.460938 -273.441406 12.703125 -298.859375 C 12.703125 -304.097656 14.113281 -306.515625 16.9375 -306.109375 C 21.375 -306.109375 27.925781 -304.289062 36.59375 -300.65625 C 45.269531 -297.03125 52.226562 -295.21875 57.46875 -295.21875 C 61.5 -295.21875 65.535156 -296.023438 69.578125 -297.640625 C 81.265625 -299.660156 92.957031 -301.675781 104.65625 -303.6875 C 117.96875 -307.726562 127.046875 -314.988281 131.890625 -325.46875 C 134.304688 -327.082031 137.628906 -331.21875 141.859375 -337.875 C 146.097656 -344.53125 150.03125 -348.460938 153.65625 -349.671875 L 154.875 -341.203125 C 154.46875 -339.992188 155.472656 -334.144531 157.890625 -323.65625 C 174.023438 -316.394531 196.816406 -305.304688 226.265625 -290.390625 C 232.710938 -290.390625 240.773438 -294.820312 250.453125 -303.6875 C 260.128906 -312.5625 269.003906 -316.800781 277.078125 -316.40625 C 277.078125 -309.539062 272.941406 -300.160156 264.671875 -288.265625 C 256.398438 -276.367188 252.265625 -266.390625 252.265625 -258.328125 L 246.21875 -249.859375 C 242.1875 -203.878906 240.171875 -173.832031 240.171875 -159.71875 C 240.171875 -139.945312 241.785156 -122 245.015625 -105.875 C 245.015625 -105.875 244.609375 -102.441406 243.796875 -95.578125 C 243.398438 -90.335938 243.601562 -86.507812 244.40625 -84.09375 C 245.21875 -80.457031 247.4375 -78.035156 251.0625 -76.828125 C 266.382812 -78.847656 278.484375 -79.859375 287.359375 -79.859375 Z M 128.859375 -301.875 C 128.046875 -304.695312 126.835938 -306.109375 125.234375 -306.109375 C 123.617188 -306.109375 121.898438 -304.898438 120.078125 -302.484375 C 118.265625 -300.066406 117.359375 -298.050781 117.359375 -296.4375 C 122.609375 -296.4375 126.441406 -298.25 128.859375 -301.875 Z M 175.4375 -185.71875 C 178.664062 -199.03125 178.664062 -210.726562 175.4375 -220.8125 C 177.863281 -224.84375 179.078125 -228.875 179.078125 -232.90625 C 179.078125 -239.363281 174.835938 -246.019531 166.359375 -252.875 C 153.859375 -263.363281 147.207031 -269.007812 146.40625 -269.8125 C 137.125 -272.632812 127.441406 -278.082031 117.359375 -286.15625 C 114.140625 -287.757812 111.117188 -288.5625 108.296875 -288.5625 C 104.253906 -288.5625 99.8125 -287.148438 94.96875 -284.328125 C 90.132812 -281.503906 85.5 -278.679688 81.0625 -275.859375 C 80.257812 -274.648438 81.269531 -267.394531 84.09375 -254.09375 C 104.65625 -231.101562 117.5625 -217.390625 122.8125 -212.953125 C 137.726562 -198.835938 153.859375 -189.359375 171.203125 -184.515625 Z M 178.46875 -114.9375 C 177.65625 -117.757812 177.25 -120.988281 177.25 -124.625 C 177.25 -127.039062 177.550781 -131.070312 178.15625 -136.71875 C 178.769531 -142.363281 179.078125 -146.398438 179.078125 -148.828125 C 179.078125 -154.867188 177.863281 -159.910156 175.4375 -163.953125 C 169.789062 -165.554688 159.707031 -170.394531 145.1875 -178.46875 C 133.488281 -184.914062 123.207031 -188.34375 114.34375 -188.75 C 109.5 -189.15625 106.066406 -186.332031 104.046875 -180.28125 C 100.421875 -167.375 98.609375 -152.25 98.609375 -134.90625 C 98.609375 -127.238281 99.007812 -117.5625 99.8125 -105.875 C 100.625 -89.738281 101.234375 -80.054688 101.640625 -76.828125 C 104.859375 -71.179688 113.929688 -63.921875 128.859375 -55.046875 C 130.472656 -54.648438 132.285156 -54.453125 134.296875 -54.453125 C 141.160156 -54.453125 151.046875 -58.082031 163.953125 -65.34375 C 172.816406 -67.757812 177.453125 -74.816406 177.859375 -86.515625 C 178.265625 -95.785156 178.46875 -105.257812 178.46875 -114.9375 Z M 178.46875 -114.9375 "/></g></g></g><g fill="#000000" fill-opacity="1"><g transform="translate(1842.322026, 630.932732)"><g><path d="M 209.921875 -372.0625 C 211.128906 -369.632812 211.734375 -367.613281 211.734375 -366 C 211.734375 -363.175781 208.707031 -360.253906 202.65625 -357.234375 C 196.613281 -354.210938 192.988281 -351.691406 191.78125 -349.671875 L 166.359375 -306.109375 C 164.347656 -305.304688 161.523438 -304.90625 157.890625 -304.90625 C 156.285156 -304.90625 153.664062 -305.109375 150.03125 -305.515625 C 146.800781 -305.515625 144.378906 -305.515625 142.765625 -305.515625 C 134.296875 -305.515625 129.054688 -302.285156 127.046875 -295.828125 C 125.023438 -285.335938 123.613281 -265.976562 122.8125 -237.75 C 122.40625 -212.34375 120.1875 -192.785156 116.15625 -179.078125 C 116.15625 -123.816406 116.15625 -96.1875 116.15625 -96.1875 C 119.382812 -84.894531 121.195312 -78.238281 121.59375 -76.21875 C 124.414062 -69.363281 128.648438 -63.921875 134.296875 -59.890625 C 144.785156 -58.679688 154.867188 -61.707031 164.546875 -68.96875 C 171.804688 -75.820312 179.066406 -82.675781 186.328125 -89.53125 C 187.941406 -89.9375 192.78125 -88.125 200.84375 -84.09375 C 200.84375 -80.0625 198.425781 -75.019531 193.59375 -68.96875 C 189.957031 -64.9375 186.328125 -60.898438 182.703125 -56.859375 C 174.628906 -54.847656 165.148438 -50.414062 154.265625 -43.5625 C 140.953125 -34.6875 131.878906 -29.238281 127.046875 -27.21875 C 120.992188 -25.601562 113.128906 -19.851562 103.453125 -9.96875 C 93.773438 -0.09375 85.910156 4.84375 79.859375 4.84375 C 77.835938 4.84375 75.617188 4.4375 73.203125 3.625 C 60.703125 -6.050781 43.359375 -22.785156 21.171875 -46.578125 C 22.378906 -53.429688 27.625 -61.296875 36.90625 -70.171875 C 37.3125 -80.253906 39.726562 -95.984375 44.15625 -117.359375 C 48.195312 -137.117188 50.21875 -152.445312 50.21875 -163.34375 C 50.21875 -173.832031 48.804688 -183.710938 45.984375 -192.984375 C 47.992188 -205.484375 49 -218.992188 49 -233.515625 C 49 -254.890625 46.78125 -275.660156 42.34375 -295.828125 C 38.71875 -298.648438 34.484375 -300.0625 29.640625 -300.0625 C 23.585938 -300.0625 11.691406 -295.828125 -6.046875 -287.359375 C -7.253906 -286.953125 -9.171875 -285.84375 -11.796875 -284.03125 C -14.421875 -282.21875 -16.738281 -281.710938 -18.75 -282.515625 C -18.75 -289.378906 -16.128906 -298.253906 -10.890625 -309.140625 C -5.242188 -322.046875 -1.816406 -331.523438 -0.609375 -337.578125 C 2.617188 -339.992188 12.5 -343.820312 29.03125 -349.0625 C 41.9375 -352.695312 50.003906 -358.546875 53.234375 -366.609375 C 56.054688 -378.304688 62.8125 -388.894531 73.5 -398.375 C 84.1875 -407.851562 95.984375 -414.003906 108.890625 -416.828125 C 117.359375 -424.890625 130.0625 -436.785156 147 -452.515625 C 154.257812 -448.078125 157.285156 -443.640625 156.078125 -439.203125 C 155.273438 -432.753906 150.941406 -423.882812 143.078125 -412.59375 C 135.210938 -401.300781 131.28125 -391.820312 131.28125 -384.15625 C 131.28125 -381.332031 131.679688 -378.304688 132.484375 -375.078125 C 143.773438 -367.816406 157.085938 -364.1875 172.421875 -364.1875 C 185.328125 -364.1875 197.828125 -366.8125 209.921875 -372.0625 Z M 209.921875 -372.0625 "/></g></g></g><g fill="#000000" fill-opacity="1"><g transform="translate(2040.125629, 630.932732)"><g><path d="M 186.9375 -313.984375 C 186.125 -311.960938 180.675781 -303.488281 170.59375 -288.5625 C 164.144531 -278.882812 160.71875 -269.8125 160.3125 -261.34375 C 161.925781 -256.507812 162.734375 -252.476562 162.734375 -249.25 C 162.734375 -242.789062 159.507812 -239.96875 153.0625 -240.78125 C 150.632812 -239.96875 148.613281 -239.5625 147 -239.5625 C 144.988281 -239.5625 142.773438 -239.96875 140.359375 -240.78125 C 137.929688 -244.8125 129.253906 -249.242188 114.328125 -254.078125 C 99.410156 -258.921875 88.523438 -260.738281 81.671875 -259.53125 C 78.441406 -249.851562 78.441406 -231.097656 81.671875 -203.265625 C 82.878906 -201.648438 83.484375 -200.039062 83.484375 -198.4375 C 83.484375 -196.820312 82.578125 -194.5 80.765625 -191.46875 C 78.953125 -188.445312 78.242188 -186.128906 78.640625 -184.515625 C 77.023438 -176.847656 74.203125 -149.828125 70.171875 -103.453125 C 71.378906 -93.773438 72.789062 -84.09375 74.40625 -74.40625 C 76.832031 -63.519531 82.078125 -56.0625 90.140625 -52.03125 C 103.453125 -54.039062 121.398438 -61.300781 143.984375 -73.8125 L 157.890625 -87.71875 C 163.941406 -83.28125 164.550781 -76.019531 159.71875 -65.9375 C 146 -60.289062 129.863281 -49.601562 111.3125 -33.875 C 88.320312 -14.914062 72.390625 -2.816406 63.515625 2.421875 C 54.648438 0.398438 43.765625 -5.75 30.859375 -16.03125 C 17.953125 -26.3125 7.664062 -32.664062 0 -35.09375 C -2.019531 -37.101562 -3.03125 -39.320312 -3.03125 -41.75 C -3.03125 -44.164062 -1.414062 -47.59375 1.8125 -52.03125 C 5.039062 -56.46875 6.859375 -59.691406 7.265625 -61.703125 C 7.265625 -60.898438 7.460938 -82.679688 7.859375 -127.046875 C 8.265625 -153.660156 7.054688 -175.4375 4.234375 -192.375 C 5.847656 -198.832031 6.65625 -205.691406 6.65625 -212.953125 C 6.65625 -221.828125 5.039062 -234.328125 1.8125 -250.453125 C -1.8125 -268.203125 -4.03125 -280.503906 -4.84375 -287.359375 C -3.632812 -292.203125 0.695312 -295.734375 8.15625 -297.953125 C 15.625 -300.171875 20.566406 -302.890625 22.984375 -306.109375 C 29.035156 -312.566406 38.113281 -320.03125 50.21875 -328.5 C 65.132812 -338.582031 74.8125 -345.640625 79.25 -349.671875 C 84.488281 -350.078125 88.519531 -347.957031 91.34375 -343.3125 C 94.164062 -338.675781 96.585938 -334.140625 98.609375 -329.703125 C 102.640625 -324.054688 113.125 -319.015625 130.0625 -314.578125 C 145.789062 -310.546875 157.488281 -309.335938 165.15625 -310.953125 C 167.175781 -312.972656 169.394531 -314.179688 171.8125 -314.578125 C 173.832031 -314.984375 176.253906 -314.984375 179.078125 -314.578125 C 183.503906 -314.179688 186.125 -313.984375 186.9375 -313.984375 Z M 186.9375 -313.984375 "/></g></g></g><g fill="#000000" fill-opacity="1"><g transform="translate(2214.338229, 630.932732)"><g><path d="M 280.09375 -151.84375 C 277.675781 -146.195312 276.066406 -131.679688 275.265625 -108.296875 C 274.859375 -90.140625 270.21875 -78.035156 261.34375 -71.984375 C 254.894531 -62.710938 237.753906 -42.953125 209.921875 -12.703125 C 188.546875 11.085938 173.828125 32.664062 165.765625 52.03125 C 164.953125 55.25 159.707031 67.347656 150.03125 88.328125 C 143.175781 102.847656 140.554688 115.953125 142.171875 127.640625 C 147.410156 134.503906 155.273438 138.539062 165.765625 139.75 C 174.234375 140.15625 182.703125 140.757812 191.171875 141.5625 C 193.992188 144.382812 195.40625 148.21875 195.40625 153.0625 C 188.945312 153.0625 178.960938 154.773438 165.453125 158.203125 C 151.941406 161.628906 141.359375 162.9375 133.703125 162.125 C 122.003906 162.125 113.128906 155.269531 107.078125 141.5625 C 97.398438 119.382812 92.15625 107.890625 91.34375 107.078125 C 89.738281 99.015625 88.9375 90.34375 88.9375 81.0625 C 88.9375 56.0625 94.78125 36.503906 106.46875 22.390625 C 119.78125 9.878906 136.722656 3.625 157.296875 3.625 C 166.972656 -0.8125 173.425781 -9.078125 176.65625 -21.171875 C 179.476562 -32.066406 182.097656 -42.753906 184.515625 -53.234375 C 192.578125 -74.210938 196.609375 -98.210938 196.609375 -125.234375 C 196.609375 -137.734375 195.5 -156.6875 193.28125 -182.09375 C 191.0625 -207.5 189.953125 -227.0625 189.953125 -240.78125 C 189.953125 -249.65625 190.359375 -258.125 191.171875 -266.1875 C 187.941406 -273.445312 180.882812 -275.0625 170 -271.03125 C 145.394531 -262.15625 127.039062 -241.582031 114.9375 -209.3125 C 116.15625 -202.0625 116.765625 -194 116.765625 -185.125 C 116.765625 -175.039062 115.453125 -159.8125 112.828125 -139.4375 C 110.203125 -119.070312 108.890625 -104.050781 108.890625 -94.375 C 108.890625 -68.96875 115.75 -48.398438 129.46875 -32.671875 C 127.851562 -22.992188 122.8125 -14.320312 114.34375 -6.65625 C 112.320312 -5.039062 104.050781 0.804688 89.53125 10.890625 C 64.125 13.304688 42.144531 -1.210938 23.59375 -32.671875 C 26.414062 -37.109375 27.828125 -42.148438 27.828125 -47.796875 C 27.828125 -51.421875 27.019531 -57.0625 25.40625 -64.71875 C 23.789062 -72.382812 22.984375 -78.238281 22.984375 -82.28125 C 22.984375 -85.101562 23.1875 -87.722656 23.59375 -90.140625 C 22.789062 -101.835938 22.390625 -114.742188 22.390625 -128.859375 C 22.390625 -144.179688 23.296875 -167.773438 25.109375 -199.640625 C 26.921875 -231.503906 27.828125 -255.5 27.828125 -271.625 C 27.828125 -315.1875 22.179688 -351.6875 10.890625 -381.125 C 10.484375 -385.96875 6.453125 -393.628906 -1.203125 -404.109375 C -8.867188 -414.597656 -12.703125 -422.46875 -12.703125 -427.71875 C -12.703125 -432.957031 -9.675781 -438 -3.625 -442.84375 L 4.84375 -440.421875 C 6.851562 -438.804688 14.71875 -429.125 28.4375 -411.375 C 38.113281 -399.28125 46.984375 -393.234375 55.046875 -393.234375 C 59.890625 -393.234375 64.929688 -395.25 70.171875 -399.28125 C 76.222656 -405.726562 85.800781 -413.285156 98.90625 -421.953125 C 112.019531 -430.628906 120.796875 -437.59375 125.234375 -442.84375 C 125.234375 -442.84375 127.648438 -442.234375 132.484375 -441.015625 C 135.304688 -440.617188 137.125 -439.007812 137.9375 -436.1875 C 137.9375 -430.539062 136.320312 -422.773438 133.09375 -412.890625 C 129.863281 -403.003906 128.046875 -395.441406 127.640625 -390.203125 C 120.785156 -360.359375 117.359375 -333.738281 117.359375 -310.34375 C 117.359375 -295.820312 118.570312 -281.910156 121 -268.609375 C 127.445312 -267.796875 134.90625 -270.210938 143.375 -275.859375 C 150.226562 -281.109375 156.882812 -286.351562 163.34375 -291.59375 C 163.75 -292 172.617188 -298.851562 189.953125 -312.15625 C 201.253906 -321.03125 209.320312 -329.503906 214.15625 -337.578125 C 222.625 -337.578125 230.691406 -332.332031 238.359375 -321.84375 C 249.648438 -307.726562 257.3125 -299.257812 261.34375 -296.4375 C 273.445312 -290.382812 279.5 -279.894531 279.5 -264.96875 C 279.5 -262.957031 279.09375 -255.09375 278.28125 -241.375 Z M 280.09375 -151.84375 "/></g></g></g></g></g><g transform="matrix(1, 0, 0, 1, 1137, 1301)"><g clip-path="url(#cf8e668d3d)"><g fill="#000000" fill-opacity="1"><g transform="translate(0.681165, 368.837402)"><g><path d="M 129.015625 -73.875 C 128.546875 -67.507812 127.601562 -57.492188 126.1875 -43.828125 C 115.582031 -39.585938 104.863281 -32.398438 94.03125 -22.265625 C 89.550781 -18.023438 80.710938 -8.597656 67.515625 6.015625 C 63.984375 4.597656 57.265625 -0.234375 47.359375 -8.484375 C 43.117188 -11.304688 38.878906 -14.253906 34.640625 -17.328125 C 28.984375 -20.617188 24.035156 -22.265625 19.796875 -22.265625 C 16.492188 -22.265625 13.3125 -21.320312 10.25 -19.4375 C 5.769531 -16.613281 3.414062 -15.203125 3.1875 -15.203125 C 2.476562 -15.203125 1.882812 -15.4375 1.40625 -15.90625 C 7.0625 -30.28125 9.890625 -47.484375 9.890625 -67.515625 C 9.890625 -74.109375 9.535156 -84.238281 8.828125 -97.90625 C 8.128906 -111.582031 7.78125 -121.953125 7.78125 -129.015625 C 7.78125 -136.554688 8.015625 -143.507812 8.484375 -149.875 C 5.421875 -154.113281 5.1875 -158.707031 7.78125 -163.65625 C 10.375 -164.132812 16.617188 -166.257812 26.515625 -170.03125 C 34.054688 -172.851562 40.414062 -174.265625 45.59375 -174.265625 C 61.851562 -182.273438 72.457031 -190.757812 77.40625 -199.71875 C 80.476562 -196.414062 85.898438 -192.175781 93.671875 -187 C 96.503906 -183.226562 102.28125 -179.335938 111 -175.328125 C 119.007812 -171.316406 124.425781 -167.078125 127.25 -162.609375 C 128.195312 -155.296875 128.671875 -147.046875 128.671875 -137.859375 C 128.671875 -133.148438 128.492188 -126.375 128.140625 -117.53125 C 127.785156 -108.695312 127.609375 -102.039062 127.609375 -97.5625 C 127.609375 -88.601562 128.078125 -80.707031 129.015625 -73.875 Z M 90.84375 -37.46875 L 87.3125 -57.625 C 90.375 -77.414062 90.726562 -106.988281 88.375 -146.34375 L 85.546875 -151.640625 L 77.40625 -154.46875 C 74.820312 -154.46875 71.171875 -155.941406 66.453125 -158.890625 C 61.742188 -161.835938 58.328125 -163.3125 56.203125 -163.3125 C 54.078125 -163.3125 52.070312 -162.484375 50.1875 -160.828125 C 47.363281 -154.234375 45.007812 -143.039062 43.125 -127.25 C 42.414062 -121.59375 42.0625 -115.585938 42.0625 -109.234375 C 42.0625 -101.921875 42.648438 -91.367188 43.828125 -77.578125 C 45.003906 -63.796875 45.59375 -53.488281 45.59375 -46.65625 C 49.84375 -45.476562 54.441406 -42.890625 59.390625 -38.890625 C 66.453125 -33.460938 70.691406 -30.21875 72.109375 -29.15625 C 73.523438 -28.101562 74.941406 -27.578125 76.359375 -27.578125 C 78.242188 -27.578125 80.832031 -29.109375 84.125 -32.171875 C 87.425781 -35.234375 89.664062 -37 90.84375 -37.46875 Z M 90.84375 -37.46875 "/></g></g></g><g fill="#000000" fill-opacity="1"><g transform="translate(121.2165, 368.837402)"><g><path d="M 135.390625 -246.375 C 133.503906 -240.71875 128.789062 -234.359375 121.25 -227.296875 C 112.289062 -219.046875 106.988281 -213.742188 105.34375 -211.390625 C 98.976562 -214.210938 89.316406 -217.507812 76.359375 -221.28125 C 74.472656 -222.925781 72.585938 -223.75 70.703125 -223.75 C 67.867188 -223.75 63.976562 -219.628906 59.03125 -211.390625 C 58.5625 -208.554688 57.265625 -204.425781 55.140625 -199 C 53.023438 -193.582031 51.96875 -189.34375 51.96875 -186.28125 C 51.96875 -183.6875 52.554688 -181.097656 53.734375 -178.515625 C 52.316406 -177.097656 51.609375 -175.09375 51.609375 -172.5 C 51.367188 -169.675781 52.078125 -167.910156 53.734375 -167.203125 C 56.554688 -166.023438 59.738281 -165.4375 63.28125 -165.4375 C 66.101562 -165.4375 71.164062 -166.257812 78.46875 -167.90625 C 85.070312 -169.550781 90.257812 -170.140625 94.03125 -169.671875 C 95.4375 -168.253906 96.140625 -166.601562 96.140625 -164.71875 C 96.140625 -163.070312 95.492188 -160.476562 94.203125 -156.9375 C 92.910156 -153.40625 92.378906 -150.582031 92.609375 -148.46875 C 91.898438 -143.75 91.3125 -138.914062 90.84375 -133.96875 C 89.425781 -128.082031 85.890625 -125.375 80.234375 -125.84375 C 78.585938 -125.84375 75.9375 -126.078125 72.28125 -126.546875 C 68.632812 -127.015625 65.867188 -127.25 63.984375 -127.25 C 58.796875 -127.25 55.378906 -125.601562 53.734375 -122.3125 C 50.429688 -110.757812 48.78125 -97.914062 48.78125 -83.78125 C 48.78125 -73.875 49.898438 -59.082031 52.140625 -39.40625 C 54.378906 -19.726562 55.5 -4.941406 55.5 4.953125 C 55.5 9.660156 55.378906 14.132812 55.140625 18.375 C 53.492188 21.207031 51.960938 22.625 50.546875 22.625 C 49.128906 22.625 47.179688 21.269531 44.703125 18.5625 C 42.234375 15.851562 40.296875 14.5 38.890625 14.5 C 28.046875 8.601562 15.90625 3.648438 2.46875 -0.359375 C 2.46875 -1.765625 4.59375 -7.65625 8.84375 -18.03125 C 9.78125 -25.332031 10.25 -33.109375 10.25 -41.359375 C 10.25 -48.429688 9.71875 -58.914062 8.65625 -72.8125 C 7.59375 -86.71875 7.0625 -97.207031 7.0625 -104.28125 C 7.0625 -113 7.65625 -121.007812 8.84375 -128.3125 C 7.65625 -129.96875 4.472656 -131.03125 -0.703125 -131.5 C -4.710938 -131.96875 -6.242188 -134.320312 -5.296875 -138.5625 C -2.472656 -140.914062 -2.117188 -147.28125 -4.234375 -157.65625 C -5.890625 -166.84375 -4.710938 -171.4375 -0.703125 -171.4375 C 1.410156 -171.4375 4.59375 -170.492188 8.84375 -168.609375 C 14.257812 -172.148438 17.085938 -178.867188 17.328125 -188.765625 C 17.328125 -196.773438 17.328125 -204.664062 17.328125 -212.4375 C 17.796875 -215.03125 19.914062 -216.800781 23.6875 -217.75 C 26.507812 -218.457031 29.453125 -219.28125 32.515625 -220.21875 C 60.554688 -238.363281 79.765625 -255.921875 90.140625 -272.890625 C 92.023438 -274.304688 93.910156 -275.015625 95.796875 -275.015625 C 98.390625 -275.015625 101.570312 -273.128906 105.34375 -269.359375 C 109.8125 -264.878906 112.753906 -262.285156 114.171875 -261.578125 C 120.773438 -259.453125 125.253906 -257.800781 127.609375 -256.625 C 132.316406 -254.269531 134.910156 -250.851562 135.390625 -246.375 Z M 135.390625 -246.375 "/></g></g></g><g fill="#000000" fill-opacity="1"><g transform="translate(247.760932, 368.837402)"><g/></g></g><g fill="#000000" fill-opacity="1"><g transform="translate(326.58607, 368.837402)"><g><path d="M 122.65625 -217.390625 C 123.363281 -215.972656 123.71875 -214.796875 123.71875 -213.859375 C 123.71875 -212.210938 121.945312 -210.503906 118.40625 -208.734375 C 114.875 -206.960938 112.753906 -205.488281 112.046875 -204.3125 L 97.203125 -178.859375 C 96.023438 -178.390625 94.378906 -178.15625 92.265625 -178.15625 C 91.316406 -178.15625 89.785156 -178.273438 87.671875 -178.515625 C 85.785156 -178.515625 84.367188 -178.515625 83.421875 -178.515625 C 78.472656 -178.515625 75.410156 -176.628906 74.234375 -172.859375 C 73.054688 -166.722656 72.226562 -155.410156 71.75 -138.921875 C 71.519531 -124.078125 70.226562 -112.644531 67.875 -104.625 C 67.875 -72.34375 67.875 -56.203125 67.875 -56.203125 C 69.757812 -49.609375 70.816406 -45.71875 71.046875 -44.53125 C 72.703125 -40.53125 75.175781 -37.351562 78.46875 -35 C 84.601562 -34.289062 90.492188 -36.054688 96.140625 -40.296875 C 100.390625 -44.304688 104.632812 -48.3125 108.875 -52.3125 C 109.8125 -52.550781 112.640625 -51.492188 117.359375 -49.140625 C 117.359375 -46.773438 115.941406 -43.828125 113.109375 -40.296875 C 110.992188 -37.941406 108.875 -35.585938 106.75 -33.234375 C 102.039062 -32.046875 96.503906 -29.453125 90.140625 -25.453125 C 82.359375 -20.265625 77.054688 -17.082031 74.234375 -15.90625 C 70.691406 -14.96875 66.09375 -11.609375 60.4375 -5.828125 C 54.789062 -0.0546875 50.195312 2.828125 46.65625 2.828125 C 45.476562 2.828125 44.179688 2.59375 42.765625 2.125 C 35.460938 -3.53125 25.332031 -13.3125 12.375 -27.21875 C 13.082031 -31.226562 16.144531 -35.820312 21.5625 -41 C 21.800781 -46.894531 23.210938 -56.085938 25.796875 -68.578125 C 28.160156 -80.117188 29.34375 -89.070312 29.34375 -95.4375 C 29.34375 -101.5625 28.515625 -107.335938 26.859375 -112.765625 C 28.035156 -120.066406 28.625 -127.957031 28.625 -136.4375 C 28.625 -148.925781 27.332031 -161.066406 24.75 -172.859375 C 22.625 -174.503906 20.148438 -175.328125 17.328125 -175.328125 C 13.785156 -175.328125 6.832031 -172.851562 -3.53125 -167.90625 C -4.238281 -167.664062 -5.359375 -167.015625 -6.890625 -165.953125 C -8.421875 -164.898438 -9.773438 -164.609375 -10.953125 -165.078125 C -10.953125 -169.085938 -9.421875 -174.269531 -6.359375 -180.625 C -3.054688 -188.164062 -1.054688 -193.707031 -0.359375 -197.25 C 1.523438 -198.65625 7.300781 -200.890625 16.96875 -203.953125 C 24.507812 -206.078125 29.222656 -209.5 31.109375 -214.21875 C 32.753906 -221.050781 36.695312 -227.234375 42.9375 -232.765625 C 49.1875 -238.304688 56.082031 -241.898438 63.625 -243.546875 C 68.570312 -248.265625 75.992188 -255.21875 85.890625 -264.40625 C 90.140625 -261.8125 91.910156 -259.21875 91.203125 -256.625 C 90.722656 -252.851562 88.1875 -247.664062 83.59375 -241.0625 C 79 -234.46875 76.703125 -228.9375 76.703125 -224.46875 C 76.703125 -222.8125 76.9375 -221.039062 77.40625 -219.15625 C 84.007812 -214.914062 91.789062 -212.796875 100.75 -212.796875 C 108.28125 -212.796875 115.582031 -214.328125 122.65625 -217.390625 Z M 122.65625 -217.390625 "/></g></g></g><g fill="#000000" fill-opacity="1"><g transform="translate(442.172767, 368.837402)"><g><path d="M 163.65625 -88.71875 C 162.25 -85.425781 161.304688 -76.945312 160.828125 -63.28125 C 160.597656 -52.664062 157.890625 -45.59375 152.703125 -42.0625 C 148.929688 -36.644531 138.914062 -25.097656 122.65625 -7.421875 C 110.164062 6.484375 101.566406 19.09375 96.859375 30.40625 C 96.378906 32.289062 93.316406 39.359375 87.671875 51.609375 C 83.660156 60.085938 82.125 67.742188 83.0625 74.578125 C 86.132812 78.585938 90.734375 80.945312 96.859375 81.65625 C 101.804688 81.894531 106.753906 82.25 111.703125 82.71875 C 113.347656 84.363281 114.171875 86.601562 114.171875 89.4375 C 110.398438 89.4375 104.566406 90.4375 96.671875 92.4375 C 88.785156 94.4375 82.601562 95.203125 78.125 94.734375 C 71.289062 94.734375 66.101562 90.726562 62.5625 82.71875 C 56.90625 69.757812 53.84375 63.039062 53.375 62.5625 C 52.4375 57.851562 51.96875 52.785156 51.96875 47.359375 C 51.96875 32.753906 55.382812 21.328125 62.21875 13.078125 C 69.988281 5.773438 79.882812 2.125 91.90625 2.125 C 97.5625 -0.46875 101.332031 -5.300781 103.21875 -12.375 C 104.863281 -18.738281 106.394531 -24.984375 107.8125 -31.109375 C 112.519531 -43.359375 114.875 -57.378906 114.875 -73.171875 C 114.875 -80.472656 114.226562 -91.546875 112.9375 -106.390625 C 111.644531 -121.242188 111 -132.675781 111 -140.6875 C 111 -145.875 111.234375 -150.820312 111.703125 -155.53125 C 109.816406 -159.769531 105.691406 -160.710938 99.328125 -158.359375 C 84.953125 -153.171875 74.226562 -141.15625 67.15625 -122.3125 C 67.863281 -118.0625 68.21875 -113.347656 68.21875 -108.171875 C 68.21875 -102.273438 67.453125 -93.375 65.921875 -81.46875 C 64.390625 -69.570312 63.625 -60.796875 63.625 -55.140625 C 63.625 -40.296875 67.628906 -28.28125 75.640625 -19.09375 C 74.703125 -13.4375 71.757812 -8.367188 66.8125 -3.890625 C 65.632812 -2.941406 60.800781 0.472656 52.3125 6.359375 C 37.46875 7.773438 24.625 -0.707031 13.78125 -19.09375 C 15.4375 -21.675781 16.265625 -24.617188 16.265625 -27.921875 C 16.265625 -30.046875 15.789062 -33.34375 14.84375 -37.8125 C 13.90625 -42.289062 13.4375 -45.710938 13.4375 -48.078125 C 13.4375 -49.722656 13.550781 -51.253906 13.78125 -52.671875 C 13.3125 -59.503906 13.078125 -67.046875 13.078125 -75.296875 C 13.078125 -84.242188 13.609375 -98.023438 14.671875 -116.640625 C 15.734375 -135.265625 16.265625 -149.289062 16.265625 -158.71875 C 16.265625 -184.164062 12.960938 -205.488281 6.359375 -222.6875 C 6.128906 -225.519531 3.773438 -230 -0.703125 -236.125 C -5.179688 -242.25 -7.421875 -246.84375 -7.421875 -249.90625 C -7.421875 -252.976562 -5.65625 -255.925781 -2.125 -258.75 L 2.828125 -257.34375 C 4.003906 -256.394531 8.597656 -250.738281 16.609375 -240.375 C 22.265625 -233.300781 27.453125 -229.765625 32.171875 -229.765625 C 34.992188 -229.765625 37.9375 -230.941406 41 -233.296875 C 44.539062 -237.066406 50.140625 -241.484375 57.796875 -246.546875 C 65.453125 -251.617188 70.578125 -255.6875 73.171875 -258.75 C 73.171875 -258.75 74.582031 -258.394531 77.40625 -257.6875 C 79.0625 -257.457031 80.125 -256.515625 80.59375 -254.859375 C 80.59375 -251.554688 79.648438 -247.019531 77.765625 -241.25 C 75.878906 -235.476562 74.816406 -231.0625 74.578125 -228 C 70.578125 -210.5625 68.578125 -195.007812 68.578125 -181.34375 C 68.578125 -172.851562 69.285156 -164.722656 70.703125 -156.953125 C 74.472656 -156.472656 78.832031 -157.882812 83.78125 -161.1875 C 87.78125 -164.25 91.664062 -167.3125 95.4375 -170.375 C 95.675781 -170.613281 100.863281 -174.617188 111 -182.390625 C 117.59375 -187.578125 122.304688 -192.53125 125.140625 -197.25 C 130.085938 -197.25 134.796875 -194.179688 139.265625 -188.046875 C 145.867188 -179.804688 150.347656 -174.859375 152.703125 -173.203125 C 159.773438 -169.671875 163.3125 -163.546875 163.3125 -154.828125 C 163.3125 -153.648438 163.078125 -149.054688 162.609375 -141.046875 Z M 163.65625 -88.71875 "/></g></g></g><g fill="#000000" fill-opacity="1"><g transform="translate(594.874419, 368.837402)"><g><path d="M 139.625 -151.296875 C 138.914062 -147.046875 134.378906 -143.800781 126.015625 -141.5625 C 117.648438 -139.332031 112.757812 -136.09375 111.34375 -131.84375 C 106.632812 -127.132812 101.921875 -122.539062 97.203125 -118.0625 C 91.316406 -112.644531 85.3125 -108.875 79.1875 -106.75 C 78.476562 -103.925781 75.707031 -101.21875 70.875 -98.625 C 66.039062 -96.03125 63.625 -93.203125 63.625 -90.140625 C 60.320312 -81.421875 59.378906 -71.640625 60.796875 -60.796875 C 62.679688 -56.554688 63.390625 -51.019531 62.921875 -44.1875 C 62.679688 -32.40625 62.445312 -26.75 62.21875 -27.21875 C 65.28125 -24.863281 68.578125 -23.6875 72.109375 -23.6875 C 75.640625 -23.6875 80 -25.097656 85.1875 -27.921875 C 89.195312 -30.046875 93.203125 -32.164062 97.203125 -34.28125 L 106.40625 -40.65625 C 108.519531 -39.476562 108.632812 -37.238281 106.75 -33.9375 C 101.5625 -27.332031 94.140625 -20.851562 84.484375 -14.5 C 76.703125 -9.3125 68.804688 -4.125 60.796875 1.0625 C 58.441406 1.289062 55.910156 2.46875 53.203125 4.59375 C 50.492188 6.71875 48.3125 7.78125 46.65625 7.78125 C 45.71875 7.78125 44.660156 7.539062 43.484375 7.0625 C 41.117188 0 35.695312 -6.710938 27.21875 -13.078125 C 23.6875 -15.671875 15.554688 -20.738281 2.828125 -28.28125 C 2.359375 -31.34375 4.066406 -34.109375 7.953125 -36.578125 C 11.835938 -39.054688 14.132812 -41.238281 14.84375 -43.125 C 18.613281 -53.488281 20.5 -61.617188 20.5 -67.515625 C 20.5 -72.929688 19.320312 -78.234375 16.96875 -83.421875 C 18.144531 -87.660156 18.734375 -92.140625 18.734375 -96.859375 C 18.734375 -101.566406 18.023438 -108.570312 16.609375 -117.875 C 15.203125 -127.1875 14.5 -134.082031 14.5 -138.5625 C 14.5 -143.28125 14.96875 -147.640625 15.90625 -151.640625 C 14.96875 -153.765625 14.5 -155.535156 14.5 -156.953125 C 14.5 -160.242188 16.320312 -162.832031 19.96875 -164.71875 C 23.625 -166.601562 27.21875 -168.375 30.75 -170.03125 L 35.703125 -170.734375 C 40.890625 -176.390625 49.609375 -184.285156 61.859375 -194.421875 C 66.566406 -194.179688 70.75 -192.234375 74.40625 -188.578125 C 78.0625 -184.929688 81.539062 -181.335938 84.84375 -177.796875 C 85.539062 -176.859375 87.007812 -176.09375 89.25 -175.5 C 91.488281 -174.914062 92.960938 -174.390625 93.671875 -173.921875 C 97.679688 -169.441406 103.925781 -165.429688 112.40625 -161.890625 C 122.300781 -158.117188 128.78125 -155.054688 131.84375 -152.703125 C 132.320312 -151.992188 133.441406 -151.816406 135.203125 -152.171875 C 136.972656 -152.523438 138.445312 -152.234375 139.625 -151.296875 Z M 91.546875 -139.625 C 90.140625 -140.800781 87.785156 -142.332031 84.484375 -144.21875 L 82.359375 -148.8125 C 78.828125 -151.40625 75.410156 -154.117188 72.109375 -156.953125 C 67.628906 -160.015625 63.625 -161.546875 60.09375 -161.546875 C 58.207031 -161.546875 56.320312 -161.070312 54.4375 -160.125 C 54.90625 -157.769531 54.90625 -154.707031 54.4375 -150.9375 C 53.96875 -145.988281 53.734375 -142.925781 53.734375 -141.75 C 53.734375 -137.269531 54.789062 -133.378906 56.90625 -130.078125 C 56.90625 -126.078125 56.90625 -122.070312 56.90625 -118.0625 C 57.144531 -113.113281 59.03125 -109.816406 62.5625 -108.171875 C 67.28125 -111.460938 71.40625 -115.582031 74.9375 -120.53125 C 75.882812 -121.945312 78.945312 -124.894531 84.125 -129.375 C 88.363281 -132.90625 90.835938 -136.320312 91.546875 -139.625 Z M 91.546875 -139.625 "/></g></g></g></g></g><g clip-path="url(#2587740264)"><g transform="matrix(1, 0, 0, 1, 678, 1542)"><g clip-path="url(#3c6cbb19e0)"><g clip-path="url(#a9dff4bbd5)"><path fill="#000000" d="M 0.679688 0.324219 L 375.710938 0.324219 L 375.710938 22.824219 L 0.679688 22.824219 Z M 0.679688 0.324219 " fill-opacity="1" fill-rule="nonzero"/></g></g></g></g><g clip-path="url(#6a1b58855e)"><g transform="matrix(1, 0, 0, 1, 1946, 1542)"><g clip-path="url(#d9ecd29b4d)"><g clip-path="url(#d087629037)"><path fill="#000000" d="M 0.371094 0.324219 L 375.398438 0.324219 L 375.398438 22.824219 L 0.371094 22.824219 Z M 0.371094 0.324219 " fill-opacity="1" fill-rule="nonzero"/></g></g></g></g><g transform="matrix(1, 0, 0, 1, 259, 616)"><g clip-path="url(#de48e242a3)"><g fill="#000000" fill-opacity="1"><g transform="translate(9.980281, 743.016863)"><g><path d="M 856.578125 -355.1875 C 854.671875 -346.144531 847.300781 -331.40625 834.46875 -310.96875 C 823.050781 -292.894531 817.34375 -278.15625 817.34375 -266.75 C 817.34375 -257.238281 820.195312 -247.960938 825.90625 -238.921875 C 824.476562 -233.691406 823.765625 -227.75 823.765625 -221.09375 C 823.765625 -213.488281 824.832031 -202.671875 826.96875 -188.640625 C 829.113281 -174.617188 830.1875 -164.039062 830.1875 -156.90625 C 830.1875 -143.59375 827.097656 -132.179688 820.921875 -122.671875 C 814.734375 -115.535156 799.753906 -92.472656 775.984375 -53.484375 C 758.390625 -24.960938 740.796875 -3.804688 723.203125 9.984375 C 720.828125 12.359375 717.257812 16.640625 712.5 22.828125 C 709.175781 26.628906 705.613281 28.53125 701.8125 28.53125 C 697.53125 28.53125 691.109375 26.628906 682.546875 22.828125 C 673.992188 14.265625 665.675781 5.703125 657.59375 -2.859375 C 644.28125 -18.066406 634.054688 -37.082031 626.921875 -59.90625 C 620.734375 -64.1875 612.890625 -70.84375 603.390625 -79.875 C 590.546875 -59.90625 577.820312 -40.289062 565.21875 -21.03125 C 552.625 -1.78125 536.34375 16.164062 516.375 32.8125 C 513.039062 35.664062 507.097656 45.882812 498.546875 63.46875 C 491.890625 77.257812 484.039062 84.15625 475 84.15625 C 471.195312 84.15625 466.921875 83.207031 462.171875 81.3125 C 446.953125 59.4375 424.84375 40.890625 395.84375 25.671875 C 369.6875 13.785156 343.53125 2.140625 317.375 -9.265625 C 308.34375 -10.222656 299.3125 -10.703125 290.28125 -10.703125 C 234.175781 -10.703125 180.207031 10.929688 128.375 54.203125 C 117.914062 54.679688 107.335938 56.109375 96.640625 58.484375 C 85.941406 60.859375 78.21875 62.046875 73.46875 62.046875 C 63.476562 62.046875 48.972656 58.484375 29.953125 51.359375 C 4.273438 28.054688 -8.5625 2.378906 -8.5625 -25.671875 C -8.5625 -35.179688 -6.660156 -44.691406 -2.859375 -54.203125 C -0.472656 -71.316406 7.375 -87.722656 20.6875 -103.421875 C 26.863281 -111.023438 39.9375 -123.625 59.90625 -141.21875 C 69.894531 -141.21875 77.03125 -139.316406 81.3125 -135.515625 C 81.3125 -124.578125 74.054688 -113.640625 59.546875 -102.703125 C 45.046875 -91.765625 38.273438 -80.59375 39.234375 -69.1875 C 38.273438 -65.851562 37.796875 -62.757812 37.796875 -59.90625 C 37.796875 -48.5 44.21875 -37.800781 57.0625 -27.8125 C 68 -20.6875 79.171875 -13.554688 90.578125 -6.421875 C 104.367188 3.566406 114.59375 8.5625 121.25 8.5625 C 125.53125 8.5625 130.757812 6.421875 136.9375 2.140625 C 147.875 -4.992188 155.957031 -9.75 161.1875 -12.125 C 174.5 -26.382812 181.15625 -43.976562 181.15625 -64.90625 C 181.15625 -75.84375 178.539062 -93.671875 173.3125 -118.390625 C 168.5625 -141.691406 166.421875 -159.523438 166.890625 -171.890625 C 164.515625 -188.054688 161.660156 -204.578125 158.328125 -221.453125 C 155.003906 -238.335938 148.828125 -252.007812 139.796875 -262.46875 C 111.742188 -265.320312 84.878906 -276.613281 59.203125 -296.34375 C 33.523438 -316.070312 15.457031 -338.773438 5 -364.453125 C 2.613281 -373.484375 1.421875 -382.039062 1.421875 -390.125 C 1.421875 -428.644531 27.335938 -470.25 79.171875 -514.9375 C 97.234375 -519.21875 125.640625 -522.304688 164.390625 -524.203125 C 203.148438 -526.109375 231.5625 -529.203125 249.625 -533.484375 C 254.382812 -539.191406 256.765625 -544.898438 256.765625 -550.609375 C 256.765625 -557.734375 250.816406 -567.597656 238.921875 -580.203125 C 227.035156 -592.804688 221.570312 -603.382812 222.53125 -611.9375 C 224.90625 -612.414062 227.039062 -612.65625 228.9375 -612.65625 C 233.21875 -612.65625 238.566406 -610.273438 244.984375 -605.515625 C 251.410156 -600.765625 257 -598.863281 261.75 -599.8125 C 265.082031 -594.582031 273.40625 -589.828125 286.71875 -585.546875 C 298.125 -581.742188 304.78125 -575.328125 306.6875 -566.296875 C 301.457031 -538.242188 297.648438 -521.601562 295.265625 -516.375 C 288.140625 -497.351562 276.96875 -484.988281 261.75 -479.28125 C 257.46875 -477.851562 252.953125 -477.140625 248.203125 -477.140625 C 238.691406 -477.140625 224.660156 -481.179688 206.109375 -489.265625 C 187.566406 -497.347656 174.019531 -501.390625 165.46875 -501.390625 C 157.382812 -501.390625 150.015625 -498.773438 143.359375 -493.546875 C 130.992188 -479.285156 123.859375 -470.726562 121.953125 -467.875 C 115.296875 -458.363281 111.253906 -449.09375 109.828125 -440.0625 C 114.109375 -399.644531 125.285156 -370.398438 143.359375 -352.328125 C 152.867188 -349.003906 162.378906 -345.4375 171.890625 -341.625 C 183.773438 -337.820312 193.757812 -335.921875 201.84375 -335.921875 C 211.351562 -335.921875 219.910156 -338.300781 227.515625 -343.0625 C 243.203125 -349.71875 257.46875 -361.601562 270.3125 -378.71875 C 275.0625 -384.894531 284.804688 -400.109375 299.546875 -424.359375 C 301.453125 -422.929688 305.492188 -414.375 311.671875 -398.6875 C 316.429688 -387.28125 323.566406 -380.863281 333.078125 -379.4375 C 362.078125 -387.039062 386.5625 -402.132812 406.53125 -424.71875 C 426.5 -447.300781 437.910156 -473.332031 440.765625 -502.8125 C 438.390625 -510.894531 437.203125 -520.644531 437.203125 -532.0625 C 437.203125 -535.863281 437.4375 -541.925781 437.90625 -550.25 C 438.382812 -558.570312 438.625 -564.875 438.625 -569.15625 C 438.625 -581.507812 437.4375 -592.441406 435.0625 -601.953125 L 456.453125 -629.0625 C 459.304688 -628.582031 460.734375 -626.679688 460.734375 -623.359375 C 460.734375 -622.398438 460.492188 -620.375 460.015625 -617.28125 C 459.546875 -614.195312 459.3125 -611.703125 459.3125 -609.796875 C 459.3125 -606.941406 460.265625 -604.328125 462.171875 -601.953125 C 490.222656 -518.742188 546.328125 -452.65625 630.484375 -403.6875 C 651.878906 -424.601562 663.53125 -443.859375 665.4375 -461.453125 C 664.957031 -463.828125 664.71875 -466.441406 664.71875 -469.296875 C 664.71875 -476.429688 668.164062 -487.84375 675.0625 -503.53125 C 681.957031 -519.21875 685.40625 -531.34375 685.40625 -539.90625 C 685.40625 -543.238281 685.164062 -546.328125 684.6875 -549.171875 L 703.234375 -572.71875 C 711.796875 -565.101562 716.078125 -559.632812 716.078125 -556.3125 C 716.078125 -554.882812 714.53125 -553.8125 711.4375 -553.09375 C 708.34375 -552.382812 706.796875 -551.554688 706.796875 -550.609375 C 707.273438 -550.128906 707.75 -549.414062 708.21875 -548.46875 C 721.539062 -506.144531 735.570312 -472.625 750.3125 -447.90625 C 770.28125 -414.613281 795.71875 -388.695312 826.625 -370.15625 C 832.800781 -368.726562 838.984375 -367.539062 845.171875 -366.59375 C 851.828125 -364.21875 855.628906 -360.414062 856.578125 -355.1875 Z M 711.796875 -187.578125 C 714.171875 -194.234375 715.359375 -200.890625 715.359375 -207.546875 C 715.359375 -218.003906 712.03125 -230.601562 705.375 -245.34375 C 695.382812 -267.695312 690.15625 -279.347656 689.6875 -280.296875 C 687.78125 -290.273438 682.3125 -300.972656 673.28125 -312.390625 C 666.625 -321.421875 659.96875 -330.453125 653.3125 -339.484375 C 649.03125 -340.910156 644.988281 -341.863281 641.1875 -342.34375 C 625.488281 -317.144531 617.640625 -298.125 617.640625 -285.28125 C 617.640625 -274.351562 620.96875 -263.65625 627.625 -253.1875 C 626.675781 -247.488281 626.203125 -241.070312 626.203125 -233.9375 C 626.203125 -225.375 627.507812 -212.535156 630.125 -195.421875 C 632.738281 -178.304688 634.046875 -165.707031 634.046875 -157.625 C 634.046875 -146.207031 632.144531 -136.222656 628.34375 -127.671875 C 629.769531 -123.859375 632.382812 -120.765625 636.1875 -118.390625 C 639.988281 -116.015625 642.367188 -113.160156 643.328125 -109.828125 C 647.128906 -100.796875 651.882812 -89.148438 657.59375 -74.890625 C 660.914062 -73.460938 666.378906 -68.234375 673.984375 -59.203125 C 680.171875 -52.066406 685.40625 -48.5 689.6875 -48.5 C 693.488281 -48.5 697.289062 -50.875 701.09375 -55.625 C 715.832031 -71.320312 723.203125 -93.910156 723.203125 -123.390625 C 723.203125 -145.734375 719.398438 -167.128906 711.796875 -187.578125 Z M 525.640625 -201.84375 C 528.015625 -208.976562 529.203125 -216.347656 529.203125 -223.953125 C 529.203125 -235.835938 525.398438 -250.101562 517.796875 -266.75 C 504.960938 -292.894531 498.546875 -306.441406 498.546875 -307.390625 C 496.160156 -318.328125 489.738281 -330.453125 479.28125 -343.765625 C 471.675781 -353.753906 464.066406 -363.742188 456.453125 -373.734375 C 447.421875 -376.578125 439.335938 -378 432.203125 -378 C 418.421875 -378 408.4375 -372.535156 402.25 -361.609375 C 402.726562 -352.097656 402.492188 -340.207031 401.546875 -325.9375 C 400.585938 -307.875 400.109375 -296.460938 400.109375 -291.703125 C 400.109375 -283.148438 400.820312 -275.304688 402.25 -268.171875 C 397.5 -255.328125 395.125 -239.632812 395.125 -221.09375 C 395.125 -212.539062 396.070312 -196.613281 397.96875 -173.3125 C 399.394531 -153.34375 399.632812 -137.890625 398.6875 -126.953125 C 402.019531 -116.492188 412.003906 -106.984375 428.640625 -98.421875 C 445.285156 -89.867188 455.507812 -81.3125 459.3125 -72.75 C 462.164062 -71.320312 469.0625 -65.613281 480 -55.625 C 488.550781 -47.539062 495.679688 -43.5 501.390625 -43.5 C 506.617188 -43.5 511.613281 -46.117188 516.375 -51.359375 C 532.0625 -68.941406 539.90625 -93.898438 539.90625 -126.234375 C 539.90625 -152.390625 535.148438 -177.59375 525.640625 -201.84375 Z M 348.046875 -120.53125 C 349.953125 -128.613281 350.90625 -137.648438 350.90625 -147.640625 C 350.90625 -154.765625 350.191406 -165.816406 348.765625 -180.796875 C 347.335938 -195.773438 346.625 -207.066406 346.625 -214.671875 C 346.625 -221.804688 347.097656 -228.703125 348.046875 -235.359375 C 348.046875 -256.753906 348.046875 -278.390625 348.046875 -300.265625 C 346.148438 -325.460938 337.117188 -341.867188 320.953125 -349.484375 C 294.796875 -347.097656 281.71875 -330.691406 281.71875 -300.265625 C 281.71875 -295.515625 282.070312 -288.023438 282.78125 -277.796875 C 283.5 -267.578125 283.859375 -260.085938 283.859375 -255.328125 C 283.859375 -242.960938 282.195312 -233.21875 278.875 -226.09375 C 282.195312 -217.53125 283.859375 -206.117188 283.859375 -191.859375 C 284.335938 -180.441406 284.578125 -168.789062 284.578125 -156.90625 C 285.046875 -131.707031 292.175781 -114.59375 305.96875 -105.5625 C 307.394531 -106.03125 315.003906 -106.976562 328.796875 -108.40625 C 337.828125 -109.351562 344.242188 -113.394531 348.046875 -120.53125 Z M 348.046875 -120.53125 "/></g></g></g><g fill="#000000" fill-opacity="1"><g transform="translate(817.24486, 743.016863)"><g><path d="M 338.78125 -94.140625 C 339.726562 -90.335938 336.160156 -85.820312 328.078125 -80.59375 C 303.359375 -73.9375 276.019531 -48.738281 246.0625 -5 C 237.976562 -8.320312 231.320312 -16.164062 226.09375 -28.53125 C 219.90625 -43.269531 214.675781 -52.539062 210.40625 -56.34375 C 197.082031 -50.632812 183.765625 -39.222656 170.453125 -22.109375 C 160.941406 -14.503906 146.203125 -4.28125 126.234375 8.5625 C 123.378906 8.082031 120.050781 5.347656 116.25 0.359375 C 112.445312 -4.628906 108.882812 -7.125 105.5625 -7.125 C 89.863281 -25.675781 64.898438 -45.648438 30.671875 -67.046875 C 28.765625 -75.128906 27.8125 -84.160156 27.8125 -94.140625 C 27.8125 -103.179688 28.878906 -117.09375 31.015625 -135.875 C 33.160156 -154.65625 34.234375 -168.796875 34.234375 -178.296875 C 37.566406 -190.660156 46.125 -202.078125 59.90625 -212.546875 C 71.789062 -221.097656 83.679688 -229.65625 95.578125 -238.21875 C 96.523438 -240.59375 97 -242.734375 97 -244.640625 C 97 -250.816406 92.957031 -257.945312 84.875 -266.03125 C 74.882812 -275.539062 69.414062 -281.722656 68.46875 -284.578125 C 56.101562 -299.785156 38.273438 -322.367188 14.984375 -352.328125 C 14.984375 -358.515625 16.644531 -361.367188 19.96875 -360.890625 C 25.195312 -360.890625 32.921875 -358.75 43.140625 -354.46875 C 53.367188 -350.1875 61.570312 -348.046875 67.75 -348.046875 C 72.507812 -348.046875 77.265625 -349 82.015625 -350.90625 C 95.804688 -353.28125 109.597656 -355.65625 123.390625 -358.03125 C 139.078125 -362.789062 149.773438 -371.351562 155.484375 -383.71875 C 158.335938 -385.613281 162.257812 -390.484375 167.25 -398.328125 C 172.238281 -406.171875 176.875 -410.804688 181.15625 -412.234375 L 182.578125 -402.25 C 182.109375 -400.820312 183.300781 -393.929688 186.15625 -381.578125 C 205.164062 -373.015625 232.03125 -359.9375 266.75 -342.34375 C 274.351562 -342.34375 283.859375 -347.570312 295.265625 -358.03125 C 306.679688 -368.5 317.144531 -373.492188 326.65625 -373.015625 C 326.65625 -364.929688 321.78125 -353.875 312.03125 -339.84375 C 302.28125 -325.820312 297.40625 -314.054688 297.40625 -304.546875 L 290.28125 -294.5625 C 285.519531 -240.351562 283.140625 -204.929688 283.140625 -188.296875 C 283.140625 -164.992188 285.046875 -143.832031 288.859375 -124.8125 C 288.859375 -124.8125 288.378906 -120.769531 287.421875 -112.6875 C 286.953125 -106.507812 287.191406 -101.992188 288.140625 -99.140625 C 289.085938 -94.859375 291.703125 -92.003906 295.984375 -90.578125 C 314.054688 -92.953125 328.320312 -94.140625 338.78125 -94.140625 Z M 151.921875 -355.890625 C 150.960938 -359.222656 149.535156 -360.890625 147.640625 -360.890625 C 145.734375 -360.890625 143.707031 -359.460938 141.5625 -356.609375 C 139.425781 -353.753906 138.359375 -351.378906 138.359375 -349.484375 C 144.546875 -349.484375 149.066406 -351.617188 151.921875 -355.890625 Z M 206.828125 -218.953125 C 210.640625 -234.648438 210.640625 -248.441406 206.828125 -260.328125 C 209.679688 -265.078125 211.109375 -269.832031 211.109375 -274.59375 C 211.109375 -282.195312 206.117188 -290.039062 196.140625 -298.125 C 181.398438 -310.488281 173.550781 -317.144531 172.59375 -318.09375 C 161.65625 -321.425781 150.242188 -327.847656 138.359375 -337.359375 C 134.554688 -339.253906 130.992188 -340.203125 127.671875 -340.203125 C 122.910156 -340.203125 117.675781 -338.535156 111.96875 -335.203125 C 106.269531 -331.878906 100.804688 -328.554688 95.578125 -325.234375 C 94.617188 -323.804688 95.804688 -315.242188 99.140625 -299.546875 C 123.390625 -272.441406 138.601562 -256.273438 144.78125 -251.046875 C 162.375 -234.410156 181.394531 -223.238281 201.84375 -217.53125 Z M 210.40625 -135.515625 C 209.445312 -138.835938 208.96875 -142.640625 208.96875 -146.921875 C 208.96875 -149.773438 209.320312 -154.53125 210.03125 -161.1875 C 210.75 -167.84375 211.109375 -172.597656 211.109375 -175.453125 C 211.109375 -182.585938 209.679688 -188.53125 206.828125 -193.28125 C 200.171875 -195.1875 188.285156 -200.894531 171.171875 -210.40625 C 157.378906 -218.007812 145.253906 -222.050781 134.796875 -222.53125 C 129.085938 -223 125.046875 -219.671875 122.671875 -212.546875 C 118.390625 -197.328125 116.25 -179.492188 116.25 -159.046875 C 116.25 -150.015625 116.726562 -138.601562 117.6875 -124.8125 C 118.632812 -105.789062 119.347656 -94.378906 119.828125 -90.578125 C 123.628906 -83.921875 134.328125 -75.363281 151.921875 -64.90625 C 153.816406 -64.425781 155.953125 -64.1875 158.328125 -64.1875 C 166.410156 -64.1875 178.0625 -68.46875 193.28125 -77.03125 C 203.738281 -79.882812 209.207031 -88.203125 209.6875 -101.984375 C 210.164062 -112.921875 210.40625 -124.097656 210.40625 -135.515625 Z M 210.40625 -135.515625 "/></g></g></g><g fill="#000000" fill-opacity="1"><g transform="translate(1133.162031, 743.016863)"><g><path d="M 251.765625 -329.5 C 249.859375 -324.269531 245.21875 -318.445312 237.84375 -312.03125 C 230.476562 -305.613281 225.609375 -300.265625 223.234375 -295.984375 C 223.234375 -289.328125 220.023438 -280.882812 213.609375 -270.65625 C 207.191406 -260.4375 204.457031 -251.765625 205.40625 -244.640625 C 203.5 -243.679688 201.835938 -243.203125 200.421875 -243.203125 C 196.609375 -243.203125 193.988281 -247.484375 192.5625 -256.046875 C 191.132812 -264.609375 189 -270.078125 186.15625 -272.453125 C 180.914062 -283.859375 176.875 -291.703125 174.03125 -295.984375 C 168.800781 -304.066406 162.144531 -309.296875 154.0625 -311.671875 C 144.550781 -306.921875 135.273438 -299.789062 126.234375 -290.28125 C 121.003906 -267.457031 117.914062 -240.351562 116.96875 -208.96875 C 116.488281 -181.394531 116.015625 -153.816406 115.546875 -126.234375 C 116.492188 -117.679688 117.207031 -109.125 117.6875 -100.5625 C 119.582031 -90.101562 125.285156 -84.398438 134.796875 -83.453125 C 144.785156 -73.941406 151.679688 -69.1875 155.484375 -69.1875 C 158.804688 -69.1875 161.894531 -71.085938 164.75 -74.890625 C 167.601562 -76.316406 172.832031 -81.785156 180.4375 -91.296875 C 186.625 -99.847656 192.332031 -104.125 197.5625 -104.125 C 200.414062 -104.125 203.742188 -102.695312 207.546875 -99.84375 L 203.984375 -85.59375 C 191.140625 -77.03125 165.222656 -53.96875 126.234375 -16.40625 C 123.378906 -14.03125 121.359375 -9.035156 120.171875 -1.421875 C 118.984375 6.179688 116.25 10.457031 111.96875 11.40625 C 102.46875 5.707031 89.394531 -4.75 72.75 -19.96875 C 65.613281 -21.875 55.507812 -27.101562 42.4375 -35.65625 C 29.363281 -44.21875 19.5 -49.6875 12.84375 -52.0625 C 12.363281 -53.488281 12.125 -54.675781 12.125 -55.625 C 12.125 -57.53125 15.925781 -61.097656 23.53125 -66.328125 C 31.613281 -64.421875 38.035156 -68.460938 42.796875 -78.453125 C 45.648438 -100.328125 47.078125 -123.863281 47.078125 -149.0625 C 47.078125 -189 43.984375 -230.128906 37.796875 -272.453125 C 36.847656 -272.921875 31.378906 -275.535156 21.390625 -280.296875 C 15.210938 -283.148438 10.695312 -287.191406 7.84375 -292.421875 C 10.695312 -300.503906 16.757812 -310.367188 26.03125 -322.015625 C 35.300781 -333.660156 41.601562 -342.578125 44.9375 -348.765625 C 44.9375 -348.765625 55.394531 -359.222656 76.3125 -380.140625 C 82.019531 -381.566406 86.0625 -379.664062 88.4375 -374.4375 C 91.769531 -366.832031 94.382812 -362.316406 96.28125 -360.890625 C 103.894531 -357.554688 109.835938 -350.898438 114.109375 -340.921875 C 121.722656 -324.273438 125.765625 -315.71875 126.234375 -315.25 C 139.078125 -320 151.082031 -332.832031 162.25 -353.75 C 173.425781 -374.675781 184.242188 -387.753906 194.703125 -392.984375 C 203.265625 -393.929688 208.734375 -389.648438 211.109375 -380.140625 C 213.960938 -368.253906 217.882812 -361.359375 222.875 -359.453125 C 227.875 -357.554688 232.988281 -353.039062 238.21875 -345.90625 C 244.394531 -336.875 248.910156 -331.40625 251.765625 -329.5 Z M 251.765625 -329.5 "/></g></g></g><g fill="#000000" fill-opacity="1"><g transform="translate(1367.782171, 743.016863)"><g><path d="M 278.875 -218.953125 C 274.113281 -206.597656 271.734375 -190.671875 271.734375 -171.171875 C 271.734375 -165.460938 271.96875 -157.019531 272.4375 -145.84375 C 272.914062 -134.675781 273.15625 -126.238281 273.15625 -120.53125 C 273.15625 -101.507812 270.539062 -86.296875 265.3125 -74.890625 C 250.101562 -71.554688 234.175781 -62.757812 217.53125 -48.5 C 203.269531 -35.65625 189.003906 -22.816406 174.734375 -9.984375 C 172.359375 -8.078125 171.171875 -3.320312 171.171875 4.28125 C 171.171875 11.882812 167.84375 16.164062 161.1875 17.125 C 147.875 24.726562 140.265625 28.53125 138.359375 28.53125 C 135.035156 28.53125 131.707031 27.34375 128.375 24.96875 C 120.769531 16.40625 113.398438 7.84375 106.265625 -0.71875 C 96.753906 -10.695312 87.007812 -14.738281 77.03125 -12.84375 C 73.695312 -11.882812 71.671875 -13.898438 70.953125 -18.890625 C 70.242188 -23.890625 69.414062 -26.863281 68.46875 -27.8125 C 63.71875 -25.914062 58.25 -27.222656 52.0625 -31.734375 C 45.882812 -36.253906 41.609375 -38.515625 39.234375 -38.515625 C 37.328125 -38.515625 35.1875 -37.328125 32.8125 -34.953125 C 31.382812 -38.273438 26.984375 -40.882812 19.609375 -42.78125 C 12.242188 -44.6875 8.5625 -47.304688 8.5625 -50.640625 C 8.5625 -53.492188 9.988281 -57.296875 12.84375 -62.046875 C 26.625 -69.660156 33.515625 -82.972656 33.515625 -101.984375 C 33.515625 -109.117188 32.328125 -119.582031 29.953125 -133.375 C 27.578125 -147.164062 26.390625 -156.675781 26.390625 -161.90625 C 25.910156 -166.65625 26.265625 -174.378906 27.453125 -185.078125 C 28.640625 -195.773438 29.234375 -203.503906 29.234375 -208.265625 C 29.234375 -225.859375 23.769531 -237.742188 12.84375 -243.921875 C 11.882812 -245.828125 11.644531 -250.816406 12.125 -258.890625 C 12.601562 -265.078125 10.703125 -269.117188 6.421875 -271.015625 L 0 -263.171875 C -3.800781 -264.597656 -7.601562 -269.59375 -11.40625 -278.15625 C -12.363281 -283.382812 -10.9375 -287.425781 -7.125 -290.28125 C -3.320312 -293.132812 0.476562 -295.75 4.28125 -298.125 C 10.9375 -295.269531 17.351562 -293.84375 23.53125 -293.84375 C 35.894531 -293.84375 50.160156 -299.785156 66.328125 -311.671875 C 90.097656 -329.265625 103.410156 -338.773438 106.265625 -340.203125 C 106.742188 -343.535156 112.332031 -348.410156 123.03125 -354.828125 C 133.726562 -361.242188 138.601562 -366.351562 137.65625 -370.15625 C 129.09375 -384.894531 116.253906 -397.734375 99.140625 -408.671875 C 83.921875 -418.660156 73.457031 -422.941406 67.75 -421.515625 C 65.851562 -422.941406 59.554688 -423.054688 48.859375 -421.859375 C 38.160156 -420.671875 32.097656 -421.503906 30.671875 -424.359375 C 31.617188 -431.492188 26.976562 -438.507812 16.75 -445.40625 C 6.53125 -452.300781 1.421875 -457.410156 1.421875 -460.734375 C 1.421875 -463.585938 3.800781 -467.15625 8.5625 -471.4375 C 25.195312 -470.488281 43.023438 -475.125 62.046875 -485.34375 C 81.066406 -495.5625 96.757812 -500.671875 109.125 -500.671875 C 112.925781 -500.671875 116.96875 -500.195312 121.25 -499.25 C 135.039062 -492.125 148.59375 -477.625 161.90625 -455.75 C 182.820312 -422.9375 194.46875 -405.101562 196.84375 -402.25 C 211.582031 -383.707031 228.703125 -373.007812 248.203125 -370.15625 C 271.492188 -306.914062 281.71875 -256.515625 278.875 -218.953125 Z M 190.421875 -308.109375 L 181.15625 -323.09375 C 176.40625 -325.945312 171.175781 -327.375 165.46875 -327.375 C 155.007812 -327.375 138.128906 -317.625 114.828125 -298.125 C 112.921875 -289.09375 110.78125 -280.054688 108.40625 -271.015625 C 106.03125 -273.398438 102.941406 -274.113281 99.140625 -273.15625 L 94.859375 -258.1875 C 99.609375 -242.96875 101.984375 -223.710938 101.984375 -200.421875 C 101.984375 -190.910156 101.507812 -177.117188 100.5625 -159.046875 C 99.613281 -140.984375 99.140625 -127.671875 99.140625 -119.109375 C 98.660156 -115.304688 98.421875 -111.503906 98.421875 -107.703125 C 98.421875 -95.335938 102.460938 -83.804688 110.546875 -73.109375 C 118.628906 -62.410156 126.710938 -52.066406 134.796875 -42.078125 C 139.078125 -40.179688 143.59375 -39.234375 148.34375 -39.234375 C 161.65625 -39.234375 172.59375 -45.175781 181.15625 -57.0625 C 185.4375 -68.46875 188.050781 -82.492188 189 -99.140625 C 189.476562 -110.546875 189.476562 -126.234375 189 -146.203125 C 188.050781 -169.023438 187.816406 -184.003906 188.296875 -191.140625 C 191.140625 -254.859375 191.847656 -293.847656 190.421875 -308.109375 Z M 190.421875 -308.109375 "/></g></g></g><g fill="#000000" fill-opacity="1"><g transform="translate(1628.788252, 743.016863)"><g><path d="M 281.71875 -305.25 C 280.289062 -296.695312 271.132812 -290.160156 254.25 -285.640625 C 237.375 -281.128906 227.507812 -274.59375 224.65625 -266.03125 C 215.15625 -256.519531 205.648438 -247.25 196.140625 -238.21875 C 184.242188 -227.28125 172.117188 -219.671875 159.765625 -215.390625 C 158.335938 -209.679688 152.75 -204.210938 143 -198.984375 C 133.25 -193.753906 128.375 -188.050781 128.375 -181.875 C 121.71875 -164.28125 119.816406 -144.546875 122.671875 -122.671875 C 126.472656 -114.109375 127.898438 -102.9375 126.953125 -89.15625 C 126.472656 -65.375 126 -53.960938 125.53125 -54.921875 C 131.707031 -50.160156 138.363281 -47.78125 145.5 -47.78125 C 152.625 -47.78125 161.421875 -50.632812 171.890625 -56.34375 C 179.972656 -60.625 188.054688 -64.90625 196.140625 -69.1875 L 214.671875 -82.015625 C 218.953125 -79.640625 219.191406 -75.125 215.390625 -68.46875 C 204.929688 -55.15625 189.953125 -42.078125 170.453125 -29.234375 C 154.765625 -18.773438 138.835938 -8.316406 122.671875 2.140625 C 117.921875 2.617188 112.8125 4.992188 107.34375 9.265625 C 101.875 13.546875 97.472656 15.6875 94.140625 15.6875 C 92.242188 15.6875 90.101562 15.210938 87.71875 14.265625 C 82.96875 0.00390625 72.035156 -13.546875 54.921875 -26.390625 C 47.785156 -31.617188 31.378906 -41.84375 5.703125 -57.0625 C 4.753906 -63.238281 8.203125 -68.820312 16.046875 -73.8125 C 23.890625 -78.8125 28.523438 -83.210938 29.953125 -87.015625 C 37.554688 -107.929688 41.359375 -124.332031 41.359375 -136.21875 C 41.359375 -147.15625 38.984375 -157.851562 34.234375 -168.3125 C 36.609375 -176.875 37.796875 -185.910156 37.796875 -195.421875 C 37.796875 -204.929688 36.367188 -219.078125 33.515625 -237.859375 C 30.660156 -256.640625 29.234375 -270.546875 29.234375 -279.578125 C 29.234375 -289.085938 30.1875 -297.882812 32.09375 -305.96875 C 30.1875 -310.25 29.234375 -313.816406 29.234375 -316.671875 C 29.234375 -323.328125 32.921875 -328.554688 40.296875 -332.359375 C 47.671875 -336.160156 54.921875 -339.726562 62.046875 -343.0625 L 72.03125 -344.484375 C 82.488281 -355.898438 100.082031 -371.828125 124.8125 -392.265625 C 134.320312 -391.796875 142.757812 -387.875 150.125 -380.5 C 157.5 -373.132812 164.515625 -365.882812 171.171875 -358.75 C 172.597656 -356.84375 175.566406 -355.296875 180.078125 -354.109375 C 184.597656 -352.921875 187.570312 -351.851562 189 -350.90625 C 197.082031 -341.875 209.679688 -333.789062 226.796875 -326.65625 C 246.773438 -319.050781 259.851562 -312.867188 266.03125 -308.109375 C 266.976562 -306.679688 269.234375 -306.320312 272.796875 -307.03125 C 276.367188 -307.75 279.34375 -307.15625 281.71875 -305.25 Z M 184.71875 -281.71875 C 181.863281 -284.09375 177.109375 -287.1875 170.453125 -291 L 166.1875 -300.265625 C 159.050781 -305.492188 152.15625 -310.960938 145.5 -316.671875 C 136.46875 -322.847656 128.382812 -325.9375 121.25 -325.9375 C 117.445312 -325.9375 113.640625 -324.988281 109.828125 -323.09375 C 110.785156 -318.332031 110.785156 -312.148438 109.828125 -304.546875 C 108.878906 -294.554688 108.40625 -288.375 108.40625 -286 C 108.40625 -276.96875 110.546875 -269.125 114.828125 -262.46875 C 114.828125 -254.382812 114.828125 -246.300781 114.828125 -238.21875 C 115.304688 -228.226562 119.109375 -221.570312 126.234375 -218.25 C 135.742188 -224.90625 144.066406 -233.222656 151.203125 -243.203125 C 153.109375 -246.054688 159.289062 -252 169.75 -261.03125 C 178.300781 -268.164062 183.289062 -275.0625 184.71875 -281.71875 Z M 184.71875 -281.71875 "/></g></g></g><g fill="#000000" fill-opacity="1"><g transform="translate(1891.933667, 743.016863)"><g><path d="M 341.625 -296.703125 C 340.675781 -288.617188 338.539062 -274.828125 335.21875 -255.328125 C 332.363281 -238.210938 330.9375 -224.660156 330.9375 -214.671875 C 330.9375 -206.117188 331.648438 -197.800781 333.078125 -189.71875 C 330.222656 -175.445312 329.742188 -157.140625 331.640625 -134.796875 C 334.972656 -102.941406 336.640625 -84.632812 336.640625 -79.875 C 336.640625 -65.132812 334.738281 -52.0625 330.9375 -40.65625 C 329.976562 -40.175781 317.378906 -32.566406 293.140625 -17.828125 C 277.921875 -8.796875 268.171875 2.140625 263.890625 14.984375 C 258.660156 22.109375 248.796875 30.066406 234.296875 38.859375 C 219.796875 47.660156 210.164062 55.628906 205.40625 62.765625 C 199.226562 62.765625 191.859375 65.019531 183.296875 69.53125 C 174.734375 74.050781 167.835938 76.3125 162.609375 76.3125 C 161.660156 74.882812 156.90625 71.082031 148.34375 64.90625 C 141.6875 59.675781 138.359375 55.394531 138.359375 52.0625 C 138.359375 48.738281 140.257812 45.171875 144.0625 41.359375 C 155.957031 38.035156 167.847656 34.707031 179.734375 31.375 C 193.046875 26.144531 200.648438 18.0625 202.546875 7.125 C 216.335938 -5.226562 224.898438 -24.007812 228.234375 -49.21875 C 229.660156 -70.132812 230.847656 -91.289062 231.796875 -112.6875 L 237.5 -129.09375 L 223.953125 -248.90625 C 223.472656 -255.09375 214.675781 -263.890625 197.5625 -275.296875 C 175.6875 -278.148438 157.851562 -269.351562 144.0625 -248.90625 C 145.019531 -219.90625 144.546875 -182.109375 142.640625 -135.515625 C 140.265625 -81.304688 139.078125 -44.457031 139.078125 -24.96875 C 116.253906 -5.46875 97.472656 6.179688 82.734375 9.984375 C 59.910156 -1.898438 40.414062 -14.5 24.25 -27.8125 C 50.875 -75.832031 64.1875 -118.390625 64.1875 -155.484375 C 64.1875 -165.941406 63.238281 -176.640625 61.34375 -187.578125 C 64.664062 -193.753906 66.328125 -200.882812 66.328125 -208.96875 C 66.328125 -214.675781 65.375 -222.757812 63.46875 -233.21875 C 61.570312 -243.675781 60.625 -251.523438 60.625 -256.765625 C 60.625 -260.566406 60.863281 -264.128906 61.34375 -267.453125 C 55.15625 -274.109375 50.875 -277.4375 48.5 -277.4375 C 46.59375 -277.4375 44.691406 -276.722656 42.796875 -275.296875 C 36.609375 -271.023438 31.375 -262.226562 27.09375 -248.90625 C 22.820312 -235.59375 17.359375 -227.507812 10.703125 -224.65625 C 5.941406 -232.269531 3.5625 -240.117188 3.5625 -248.203125 C 3.5625 -256.753906 6.65625 -267.453125 12.84375 -280.296875 C 20.925781 -296.929688 25.679688 -307.628906 27.109375 -312.390625 C 40.421875 -327.128906 53.96875 -341.867188 67.75 -356.609375 C 85.34375 -373.722656 102.9375 -381.332031 120.53125 -379.4375 C 128.144531 -365.644531 135.988281 -351.851562 144.0625 -338.0625 C 155 -322.851562 166.890625 -315.25 179.734375 -315.25 C 184.484375 -315.25 189.472656 -316.195312 194.703125 -318.09375 C 207.066406 -322.375 218.242188 -332.597656 228.234375 -348.765625 C 240.597656 -368.734375 248.914062 -380.617188 253.1875 -384.421875 C 264.125 -383.472656 273.160156 -376.578125 280.296875 -363.734375 C 292.179688 -342.816406 298.363281 -331.882812 298.84375 -330.9375 C 302.164062 -325.707031 309.414062 -319.765625 320.59375 -313.109375 C 331.769531 -306.453125 338.78125 -300.984375 341.625 -296.703125 Z M 341.625 -296.703125 "/></g></g></g><g fill="#000000" fill-opacity="1"><g transform="translate(2210.703383, 743.016863)"><g><path d="M 273.875 -412.234375 C 281.957031 -382.285156 286 -363.03125 286 -354.46875 C 286 -340.207031 281.71875 -328.320312 273.15625 -318.8125 C 269.832031 -313.101562 257.707031 -296.9375 236.78125 -270.3125 C 223 -252.71875 214.679688 -235.125 211.828125 -217.53125 C 215.628906 -207.539062 226.566406 -195.414062 244.640625 -181.15625 C 260.804688 -168.789062 269.597656 -155.476562 271.015625 -141.21875 C 271.492188 -137.414062 272.921875 -128.144531 275.296875 -113.40625 C 277.203125 -101.519531 278.15625 -92.007812 278.15625 -84.875 C 278.15625 -69.65625 273.875 -57.289062 265.3125 -47.78125 C 261.03125 -50.164062 257.226562 -51.359375 253.90625 -51.359375 C 249.15625 -51.359375 243.6875 -48.503906 237.5 -42.796875 C 231.320312 -37.085938 226.566406 -34.234375 223.234375 -34.234375 C 219.910156 -34.234375 216.582031 -35.660156 213.25 -38.515625 C 193.757812 -25.671875 160.238281 -6.414062 112.6875 19.25 C 104.601562 18.300781 93.546875 10.222656 79.515625 -4.984375 C 65.492188 -20.203125 54.679688 -27.8125 47.078125 -27.8125 C 40.421875 -27.8125 34 -24.484375 27.8125 -17.828125 C 27.8125 -17.359375 26.503906 -14.625 23.890625 -9.625 C 21.273438 -4.632812 19.96875 -0.710938 19.96875 2.140625 C 19.96875 5.460938 20.921875 8.316406 22.828125 10.703125 C 30.429688 10.222656 36.375 14.265625 40.65625 22.828125 C 41.125 24.253906 43.5 31.625 47.78125 44.9375 C 47.3125 53.019531 47.078125 61.101562 47.078125 69.1875 C 46.117188 78.695312 42.078125 84.164062 34.953125 85.59375 C 23.066406 81.78125 10.941406 78.210938 -1.421875 74.890625 C -13.785156 69.179688 -20.441406 59.671875 -21.390625 46.359375 C -16.160156 -3.085938 4.753906 -61.570312 41.359375 -129.09375 C 41.359375 -136.226562 37.671875 -146.453125 30.296875 -159.765625 C 22.929688 -173.078125 19.25 -183.296875 19.25 -190.421875 C 19.25 -196.128906 20.914062 -201.835938 24.25 -207.546875 C 24.25 -212.773438 23.890625 -220.972656 23.171875 -232.140625 C 22.460938 -243.316406 22.109375 -251.523438 22.109375 -256.765625 C 22.109375 -277.679688 26.625 -293.367188 35.65625 -303.828125 C 49.445312 -305.253906 66.445312 -312.863281 86.65625 -326.65625 C 106.863281 -340.445312 124.097656 -347.816406 138.359375 -348.765625 C 147.398438 -353.515625 160.476562 -362.3125 177.59375 -375.15625 C 187.570312 -371.820312 194.820312 -362.3125 199.34375 -346.625 C 203.863281 -330.9375 210.640625 -320.710938 219.671875 -315.953125 C 227.273438 -318.804688 236.785156 -331.171875 248.203125 -353.046875 C 247.722656 -358.273438 247.007812 -362.316406 246.0625 -365.171875 C 244.15625 -369.921875 241.773438 -373.007812 238.921875 -374.4375 C 232.742188 -373.007812 225.613281 -377.050781 217.53125 -386.5625 C 216.101562 -390.84375 215.390625 -394.644531 215.390625 -397.96875 C 215.390625 -407.007812 221.8125 -415.332031 234.65625 -422.9375 C 238.457031 -424.363281 242.257812 -425.078125 246.0625 -425.078125 C 257.945312 -425.078125 267.21875 -420.796875 273.875 -412.234375 Z M 156.1875 -232.515625 C 157.144531 -234.890625 157.625 -237.503906 157.625 -240.359375 C 157.625 -246.054688 154.769531 -253.300781 149.0625 -262.09375 C 143.351562 -270.894531 140.023438 -276.960938 139.078125 -280.296875 L 111.96875 -316.671875 C 106.738281 -316.191406 102.816406 -313.335938 100.203125 -308.109375 C 97.585938 -302.878906 95.09375 -297.890625 92.71875 -293.140625 C 88.914062 -273.160156 87.015625 -258.414062 87.015625 -248.90625 C 87.015625 -227.988281 93.671875 -212.773438 106.984375 -203.265625 C 116.015625 -201.835938 124.8125 -204.929688 133.375 -212.546875 C 146.207031 -224.429688 153.8125 -231.085938 156.1875 -232.515625 Z M 193.28125 -72.75 C 195.1875 -91.289062 184.726562 -114.351562 161.90625 -141.9375 C 149.539062 -150.488281 134.085938 -155.476562 115.546875 -156.90625 C 106.503906 -150.726562 97.226562 -144.785156 87.71875 -139.078125 C 76.3125 -130.515625 70.609375 -121.71875 70.609375 -112.6875 C 70.609375 -108.40625 71.796875 -104.125 74.171875 -99.84375 C 88.441406 -67.988281 115.546875 -48.019531 155.484375 -39.9375 C 158.335938 -44.21875 164.519531 -49.328125 174.03125 -55.265625 C 183.539062 -61.210938 189.957031 -67.039062 193.28125 -72.75 Z M 193.28125 -72.75 "/></g></g></g></g></g></svg>